<?xml version="1.0" encoding="utf-8"?>
<!-- Generator: Adobe Illustrator 16.0.0, SVG Export Plug-In . SVG Version: 6.00 Build 0)  -->
<!DOCTYPE svg PUBLIC "-//W3C//DTD SVG 1.1//EN" "http://www.w3.org/Graphics/SVG/1.1/DTD/svg11.dtd">
<svg version="1.1" id="Layer_1" xmlns="http://www.w3.org/2000/svg" xmlns:xlink="http://www.w3.org/1999/xlink" x="0px" y="0px"
	 width="105.562px" height="140.099px" viewBox="47.219 62.667 105.562 140.099"
	 enable-background="new 47.219 62.667 105.562 140.099" xml:space="preserve">
<g id="t-logo">
	<polygon points="152.781,62.667 101.793,62.667 101.793,72.442 143.008,72.442 143.008,85.472 146.265,85.472 146.265,69.183 
		105.051,69.183 105.051,65.925 149.523,65.925 149.523,88.731 111.565,88.731 111.565,199.508 108.307,199.508 108.307,85.472 
		139.75,85.472 139.75,75.698 60.25,75.698 60.25,85.472 91.693,85.472 91.693,199.508 88.435,199.508 88.435,88.731 50.477,88.731 
		50.477,65.925 94.95,65.925 94.95,69.183 53.735,69.183 53.735,85.472 56.992,85.472 56.992,72.442 98.208,72.442 98.208,62.667 
		47.219,62.667 47.219,91.988 85.177,91.988 85.176,202.766 85.177,202.766 94.951,202.766 94.951,82.215 63.508,82.215 
		63.508,78.957 98.208,78.957 98.208,202.765 101.792,202.765 101.792,78.957 136.492,78.957 136.492,82.215 105.049,82.215 
		105.049,202.766 114.823,202.766 114.824,202.766 114.823,91.988 152.781,91.988 	"/>
</g>
</svg>
