<?xml version="1.0" standalone="no"?>
<!DOCTYPE svg PUBLIC "-//W3C//DTD SVG 20010904//EN"
 "http://www.w3.org/TR/2001/REC-SVG-20010904/DTD/svg10.dtd">
<svg version="1.0" xmlns="http://www.w3.org/2000/svg"
 width="260.000000pt" height="260.000000pt" viewBox="0 0 260.000000 260.000000"
 preserveAspectRatio="xMidYMid meet">
<metadata>
Created by potrace 1.11, written by Peter Selinger 2001-2013
</metadata>
<g transform="translate(0.000000,260.000000) scale(0.100000,-0.100000)"
fill="#000000" stroke="none">
<path d="M474 2397 c-2 -7 -3 -111 -2 -232 l3 -220 298 -3 297 -2 0 -870 0
-870 80 0 80 0 0 950 0 950 -245 0 -245 0 0 25 0 25 270 0 270 0 0 -976 0
-975 28 3 27 3 3 973 2 972 270 0 270 0 0 -25 0 -25 -250 0 -250 0 0 -950 0
-950 80 0 80 0 0 870 0 870 298 2 297 3 0 230 0 230 -400 0 -400 0 -3 -77 -3
-78 326 0 325 0 0 -105 0 -105 25 0 25 0 0 130 0 130 -320 0 -320 0 0 25 0 25
345 0 345 0 0 -175 0 -175 -297 -2 -298 -3 -3 -867 c-2 -860 -2 -868 -22 -868
-20 0 -20 7 -20 890 l0 890 245 0 245 0 0 80 0 80 -625 0 -625 0 0 -80 0 -80
245 0 245 0 0 -890 c0 -883 0 -890 -20 -890 -20 0 -20 8 -22 868 l-3 867 -297
3 -298 2 0 175 0 175 345 0 345 0 0 -25 0 -25 -320 0 -320 0 0 -130 0 -130 25
0 25 0 0 105 0 105 325 0 325 0 0 80 0 80 -400 0 c-315 0 -402 -3 -406 -13z"/>
</g>
</svg>
