<?xml version="1.0" standalone="no"?>
<!DOCTYPE svg PUBLIC "-//W3C//DTD SVG 20010904//EN"
 "http://www.w3.org/TR/2001/REC-SVG-20010904/DTD/svg10.dtd">
<svg version="1.0" xmlns="http://www.w3.org/2000/svg"
 width="700.000000pt" height="700.000000pt" viewBox="0 0 700.000000 700.000000"
 preserveAspectRatio="xMidYMid meet">
<metadata>
Created by potrace 1.11, written by Peter Selinger 2001-2013
</metadata>
<g transform="translate(0.000000,700.000000) scale(0.100000,-0.100000)"
fill="#000000" stroke="none">
<path d="M0 3500 l0 -3500 3500 0 3500 0 0 3500 0 3500 -3500 0 -3500 0 0
-3500z m3701 1970 c217 -22 376 -67 557 -156 372 -184 611 -479 712 -879 16
-60 31 -136 35 -167 l7 -58 -355 0 -355 0 -7 47 c-9 63 -48 173 -78 225 -129
221 -291 325 -557 358 -170 20 -338 -11 -495 -93 -60 -32 -104 -66 -176 -137
-85 -84 -102 -107 -147 -200 -60 -121 -95 -244 -119 -415 -22 -156 -25 -826
-5 -975 44 -315 122 -500 271 -647 216 -214 533 -285 841 -187 145 45 261 136
351 272 56 85 85 156 107 265 l17 77 352 0 c339 0 353 -1 353 -19 0 -40 -32
-191 -61 -286 -69 -222 -166 -384 -328 -545 -218 -217 -496 -357 -812 -411
-107 -18 -150 -21 -314 -16 -218 6 -320 24 -497 87 -209 75 -364 174 -529 339
-283 284 -416 606 -459 1111 -13 157 -13 718 0 865 47 530 186 858 484 1142
315 301 756 448 1207 403z"/>
</g>
</svg>
