<?xml version="1.0" standalone="no"?>
<!DOCTYPE svg PUBLIC "-//W3C//DTD SVG 1.1//EN" "http://www.w3.org/Graphics/SVG/1.1/DTD/svg11.dtd" >
<svg xmlns="http://www.w3.org/2000/svg" xmlns:xlink="http://www.w3.org/1999/xlink" version="1.1">
<metadata>
Created by FontForge 20190801 at Thu Sep 24 18:53:00 2009
 By Jimmy Wärting
Copyright (c) 2004 by Laurenz Brunner. www.lineto.com. All rights reserved.
</metadata>
<defs>
<font id="AkkuratStd-Italic" horiz-adv-x="570" >
  <font-face 
    font-family="AkkuratStd"
    font-weight="400"
    font-style="italic"
    font-stretch="normal"
    units-per-em="1000"
    panose-1="2 11 5 4 2 1 1 2 1 2"
    ascent="783"
    descent="-217"
    x-height="506"
    cap-height="709"
    bbox="-118 -243 1087 933"
    underline-thickness="45"
    underline-position="-115"
    slope="-9"
    stemh="73"
    stemv="87"
    unicode-range="U+000D-FB02"
  />
<missing-glyph horiz-adv-x="588" 
d="M88 0v698h412v-698h-412zM163 74h262v549h-262v-549z" />
    <glyph glyph-name="f_i" unicode="fi" horiz-adv-x="625" 
d="M606 722l-18 -100h-99l18 100h99zM562 506l-90 -506h-87l90 506h87zM420 706l-13 -72c-30 11 -50 18 -86 18c-40 0 -72 -25 -79 -63l-15 -83h147l-13 -72h-147l-76 -434h-85l77 434h-92l13 72h91l17 96c12 67 70 123 158 123c45 0 71 -9 103 -19z" />
    <glyph glyph-name="f_l" unicode="fl" horiz-adv-x="643" 
d="M420 706l-13 -72c-30 11 -50 18 -86 18c-40 0 -72 -25 -79 -63l-15 -83h147l-13 -72h-147l-76 -434h-85l77 434h-92l13 72h91l17 96c12 67 70 123 158 123c45 0 71 -9 103 -19zM596 722l-108 -608c-1 -4 -1 -8 -1 -11c0 -22 11 -35 38 -35c9 0 27 2 40 6l-12 -69
c-17 -7 -37 -11 -60 -11c-32 0 -55 10 -70 27s-22 36 -22 65c0 8 1 20 6 48l104 588h85z" />
    <glyph glyph-name=".notdef" horiz-adv-x="588" 
d="M88 0v698h412v-698h-412zM163 74h262v549h-262v-549z" />
    <glyph glyph-name=".null" horiz-adv-x="0" 
 />
    <glyph glyph-name=".null" horiz-adv-x="0" 
 />
    <glyph glyph-name="uni000D" unicode="&#xd;" horiz-adv-x="222" 
 />
    <glyph glyph-name="space" unicode=" " horiz-adv-x="222" 
 />
    <glyph glyph-name="exclam" unicode="!" horiz-adv-x="327" 
d="M295 709l-40 -224l-71 -270h-58l23 270l40 224h106zM192 109l-20 -109h-107l20 109h107z" />
    <glyph glyph-name="quotedbl" unicode="&#x22;" horiz-adv-x="440" 
d="M416 709l-22 -123l-49 -153h-53l5 153l22 123h97zM247 709l-22 -123l-49 -153h-53l5 153l22 123h97z" />
    <glyph glyph-name="numbersign" unicode="#" horiz-adv-x="734" 
d="M697 505l-13 -74h-136l-52 -167h126l-14 -73h-135l-60 -191h-75l60 191h-158l-60 -191h-75l59 191h-128l14 73h138l52 167h-129l14 74h138l60 190h75l-59 -190h158l59 190h75l-59 -190h125zM473 431h-158l-52 -167h158z" />
    <glyph glyph-name="dollar" unicode="$" 
d="M556 503h-89c0 63 -34 109 -96 123l-40 -230l29 -7c83 -20 155 -86 155 -173c0 -67 -29 -123 -75 -160c-48 -39 -114 -56 -179 -57l-16 -92h-59l18 97c-111 19 -190 100 -190 215c0 8 0 15 1 23h87c-1 -8 -1 -16 -1 -24c0 -75 46 -120 116 -136l43 243
c-12 3 -36 11 -36 11c-85 26 -142 82 -142 165c0 129 124 208 246 208l15 91h58l-17 -97c99 -20 172 -96 172 -200zM313 632c-76 -2 -143 -47 -143 -126c0 -41 28 -70 77 -86l28 -9zM426 204c0 54 -42 86 -91 101l-19 6l-41 -234c72 1 151 46 151 127z" />
    <glyph glyph-name="percent" unicode="%" horiz-adv-x="922" 
d="M833 217c0 -58 -18 -128 -57 -171c-30 -33 -72 -59 -126 -59c-92 0 -149 66 -149 153c0 57 18 129 57 172c30 33 72 58 126 58c92 0 149 -66 149 -153zM805 685l-638 -709l-45 44l638 708zM424 570c0 -58 -18 -128 -57 -171c-30 -33 -73 -59 -127 -59
c-92 0 -149 66 -149 153c0 57 18 129 57 172c30 33 73 58 127 58c92 0 149 -66 149 -153zM756 215c0 50 -22 88 -76 88c-23 0 -39 -8 -53 -19c-36 -29 -50 -96 -50 -142c0 -50 22 -88 77 -88c23 0 38 8 52 19c36 30 50 96 50 142zM347 568c0 50 -23 88 -77 88
c-23 0 -38 -8 -52 -19c-36 -29 -51 -96 -51 -142c0 -50 23 -88 78 -88c23 0 37 8 51 19c36 30 51 96 51 142z" />
    <glyph glyph-name="ampersand" unicode="&#x26;" horiz-adv-x="733" 
d="M680 395l-11 -73h-73c-11 -63 -43 -138 -86 -187l97 -135h-103l-49 69c-41 -39 -118 -82 -210 -82c-98 0 -196 66 -196 181c0 112 84 175 174 223c-9 12 -26 37 -26 37c-20 30 -35 67 -35 105c0 109 81 189 200 189c104 0 163 -75 163 -146c0 -86 -55 -146 -121 -180
c0 0 -40 -20 -60 -31l121 -167c36 50 56 136 64 197h151zM411 130l-146 203c-15 -9 -31 -16 -46 -25c-48 -29 -85 -74 -85 -132c0 -67 52 -110 117 -110c74 0 119 21 160 64zM441 571c0 34 -28 79 -86 79c-63 0 -106 -48 -106 -111c0 -30 11 -55 27 -78c0 0 18 -25 27 -38
l46 23c50 25 92 67 92 125z" />
    <glyph glyph-name="quotesingle" unicode="'" horiz-adv-x="261" 
d="M241 709l-22 -123l-48 -153h-54l6 153l22 123h96z" />
    <glyph glyph-name="parenleft" unicode="(" horiz-adv-x="299" 
d="M351 723c-117 -108 -191 -232 -219 -395c-8 -43 -11 -84 -11 -124c0 -113 28 -218 82 -322l-59 -27c-64 104 -95 234 -95 360c0 43 4 85 11 126c28 160 117 326 246 428z" />
    <glyph glyph-name="parenright" unicode=")" horiz-adv-x="298" 
d="M241 415c0 -41 -3 -82 -10 -122c-28 -161 -118 -335 -247 -448l-47 45c117 118 192 245 221 409c8 44 11 86 11 127c0 111 -28 212 -81 311l56 33c65 -99 97 -228 97 -355z" />
    <glyph glyph-name="asterisk" unicode="*" horiz-adv-x="529" 
d="M509 511l-165 -40l82 -129l-73 -46l-65 137l-114 -137l-61 50l126 127l-148 42l36 76l142 -60l14 165h88l-36 -165l157 60z" />
    <glyph glyph-name="plus" unicode="+" horiz-adv-x="677" 
d="M604 268h-241v-263h-70v263h-240v69h240v247h70v-247h241v-69z" />
    <glyph glyph-name="comma" unicode="," horiz-adv-x="290" 
d="M166 117l-21 -117c-13 -74 -48 -126 -126 -157l-18 47c56 23 74 53 84 110h-64l21 117h124z" />
    <glyph glyph-name="hyphen" unicode="-" horiz-adv-x="433" 
d="M363 341l-14 -79h-297l14 79h297z" />
    <glyph glyph-name="period" unicode="." horiz-adv-x="290" 
d="M163 119l-21 -119h-119l21 119h119z" />
    <glyph glyph-name="slash" unicode="/" horiz-adv-x="395" 
d="M456 722l-435 -735h-71l435 735h71z" />
    <glyph glyph-name="zero" unicode="0" 
d="M531 480c0 -51 -7 -102 -16 -152c-19 -107 -44 -224 -134 -295c-40 -31 -84 -46 -135 -46c-59 0 -105 21 -139 51c-46 41 -68 103 -68 178c0 51 8 102 17 152c19 107 43 224 133 295c39 31 85 45 135 45c65 0 115 -22 149 -58c39 -41 58 -100 58 -170zM445 482
c0 80 -33 149 -123 149c-136 0 -160 -169 -178 -271c-8 -48 -18 -97 -18 -146c0 -80 33 -149 123 -149c136 0 160 169 178 271c8 48 18 97 18 146z" />
    <glyph glyph-name="one" unicode="1" 
d="M427 695l-123 -695h-86l104 595l-186 -116l17 98l192 118h82z" />
    <glyph glyph-name="two" unicode="2" 
d="M514 542c0 -74 -37 -131 -90 -181l-294 -281h301l-13 -80h-420l13 76l356 337c36 34 60 74 60 124c0 25 -10 47 -25 63c-22 23 -56 32 -87 32c-55 0 -112 -39 -126 -116h-88c15 113 106 192 221 192c58 0 109 -15 146 -52c30 -31 46 -71 46 -114z" />
    <glyph glyph-name="three" unicode="3" 
d="M512 537c0 -81 -54 -158 -132 -183c58 -26 88 -87 88 -149c0 -127 -106 -218 -230 -218c-117 0 -209 68 -209 192c0 11 1 21 2 32h88c-1 -9 -2 -17 -2 -26c0 -76 49 -121 124 -121c83 0 141 64 141 146c0 73 -52 111 -121 111h-42l14 79h41c81 0 149 39 149 128
c0 65 -53 104 -114 104c-71 0 -119 -47 -132 -115h-86c0 41 30 96 58 125c44 45 105 66 167 66c101 0 196 -62 196 -171z" />
    <glyph glyph-name="four" unicode="4" 
d="M511 225l-13 -77h-94l-26 -148h-86l26 148h-319l15 89l346 458h95l-356 -470h232l36 207h87l-36 -207h93z" />
    <glyph glyph-name="five" unicode="5" 
d="M544 695l-15 -77h-304l-51 -211c33 36 87 51 137 51c117 0 185 -80 185 -193c0 -148 -94 -278 -251 -278c-112 0 -201 76 -201 197c0 10 0 20 1 30h85c-1 -9 -1 -19 -1 -27c0 -75 51 -122 124 -122c101 0 156 100 156 190c0 77 -43 128 -123 128c-42 0 -83 -17 -111 -51
l-92 19l81 344h380z" />
    <glyph glyph-name="six" unicode="6" 
d="M527 530h-87c0 28 -10 50 -25 67c-22 25 -53 34 -85 34c-37 0 -66 -14 -88 -34c-52 -46 -72 -136 -86 -209c27 42 89 69 149 69c121 0 196 -83 196 -200c0 -82 -33 -162 -96 -216c-38 -33 -90 -54 -151 -54c-54 0 -103 18 -140 54c-49 47 -63 112 -63 178
c0 44 6 92 14 139c17 99 40 199 100 270c38 45 96 80 172 80c60 0 118 -21 155 -70c21 -28 35 -67 35 -108zM414 249c0 78 -44 133 -126 133c-37 0 -68 -14 -90 -34c-42 -37 -62 -96 -62 -151c0 -76 46 -133 126 -133c36 0 64 13 87 32c43 36 65 97 65 153z" />
    <glyph glyph-name="seven" unicode="7" 
d="M561 695l-14 -77l-401 -618h-96l403 618h-357l14 77h451z" />
    <glyph glyph-name="eight" unicode="8" 
d="M525 535c0 -80 -50 -153 -125 -183c46 -24 81 -85 81 -147c0 -60 -27 -117 -71 -157c-43 -40 -103 -61 -166 -61c-60 0 -121 20 -160 60c-33 34 -54 74 -54 129c0 88 56 167 142 196c-42 29 -70 79 -70 134c0 53 23 104 61 141c43 41 99 61 162 61c56 0 111 -17 151 -57
c31 -31 49 -72 49 -116zM439 529c0 68 -57 105 -119 105c-74 0 -132 -54 -132 -128c0 -70 54 -108 119 -108c74 0 132 57 132 131zM395 208c0 74 -59 118 -129 118c-86 0 -149 -62 -149 -146c0 -74 60 -118 130 -118c86 0 148 62 148 146z" />
    <glyph glyph-name="nine" unicode="9" 
d="M518 477c0 -45 -6 -92 -14 -139c-17 -98 -39 -199 -99 -270c-38 -45 -97 -80 -173 -80c-60 0 -120 22 -157 72c-21 28 -34 62 -34 103c0 8 1 17 1 17h85v-13c0 -28 12 -54 31 -73c22 -21 50 -29 80 -29c37 0 65 15 87 35c52 46 73 134 87 207c-27 -42 -89 -68 -149 -68
c-57 0 -115 24 -151 70c-28 35 -44 78 -44 130c0 82 33 162 97 216c38 33 91 53 152 53c75 0 140 -32 175 -101c19 -38 26 -82 26 -130zM432 499c0 33 -8 60 -23 83c-23 34 -60 50 -100 50c-36 0 -67 -15 -90 -34c-43 -36 -64 -95 -64 -151c0 -33 8 -61 23 -84
c23 -34 62 -49 102 -49c36 0 66 14 89 33c43 36 63 96 63 152z" />
    <glyph glyph-name="colon" unicode=":" horiz-adv-x="300" 
d="M238 506l-20 -111h-111l20 111h111zM168 109l-20 -110h-111l20 110h111z" />
    <glyph glyph-name="semicolon" unicode=";" horiz-adv-x="300" 
d="M236 505l-19 -112h-111l19 112h111zM166 110l-19 -110c-13 -73 -43 -119 -117 -148l-15 44c54 22 69 52 78 104h-57l19 110h111z" />
    <glyph glyph-name="less" unicode="&#x3c;" horiz-adv-x="468" 
d="M402 36l-48 -49l-319 318l318 317l49 -48l-269 -269z" />
    <glyph glyph-name="equal" unicode="=" horiz-adv-x="688" 
d="M569 344h-482v77h482v-77zM569 134h-482v77h482v-77z" />
    <glyph glyph-name="greater" unicode="&#x3e;" horiz-adv-x="468" 
d="M441 305l-319 -318l-48 49l269 269l-269 269l49 48z" />
    <glyph glyph-name="question" unicode="?" horiz-adv-x="495" 
d="M485 552c0 -62 -26 -109 -63 -148c-45 -47 -98 -65 -135 -104c-22 -23 -35 -50 -41 -86l-4 -25h-78l4 35c6 56 23 92 49 120c38 41 89 61 128 99c26 25 52 49 52 105c0 25 -9 45 -22 61c-20 24 -53 36 -90 36c-86 0 -135 -58 -148 -132h-91c10 55 29 102 69 142
c41 41 105 67 175 67c65 0 113 -21 147 -54c32 -31 48 -71 48 -116zM245 110l-19 -110h-107l19 110h107z" />
    <glyph glyph-name="at" unicode="@" horiz-adv-x="903" 
d="M846 403c0 -84 -27 -174 -86 -231c-37 -36 -73 -60 -136 -60c-48 0 -80 28 -88 56c-34 -39 -76 -56 -127 -56c-39 0 -73 17 -96 40c-30 29 -46 71 -46 117c0 119 70 240 200 240c39 0 81 -17 101 -53l25 42h67l-62 -248c-2 -9 -4 -19 -4 -28c0 -27 16 -39 39 -39
c30 0 51 14 71 34c46 45 61 126 61 186c0 155 -121 244 -269 244c-212 0 -351 -171 -351 -364c0 -181 127 -295 306 -295c69 0 152 19 209 47l-14 -78c-57 -28 -138 -43 -201 -43c-207 0 -384 137 -384 369c0 249 184 439 440 439c189 0 345 -122 345 -319zM542 354
c0 52 -26 86 -80 86c-27 0 -49 -15 -66 -34c-31 -35 -45 -88 -45 -130c0 -51 23 -92 79 -92c83 0 112 102 112 170z" />
    <glyph glyph-name="A" unicode="A" horiz-adv-x="615" 
d="M550 0h-89l-28 168h-309l-86 -168h-94l375 709h104zM418 252l-62 368l-189 -368h251z" />
    <glyph glyph-name="B" unicode="B" horiz-adv-x="668" 
d="M631 536c0 -75 -58 -156 -130 -173c52 -20 92 -86 92 -146c0 -150 -124 -217 -255 -217h-301l125 709h280c111 0 189 -69 189 -173zM537 531c0 61 -48 99 -109 99h-192l-39 -223h198c75 0 142 42 142 124zM502 221c0 66 -52 108 -119 108h-200l-44 -247h208
c84 0 155 47 155 139z" />
    <glyph glyph-name="C" unicode="C" horiz-adv-x="618" 
d="M611 485h-92c0 46 -17 85 -45 112c-29 28 -63 40 -110 40c-52 0 -96 -24 -128 -56c-72 -72 -105 -225 -105 -323c0 -103 52 -186 163 -186c47 0 92 18 120 46c28 27 46 54 55 90h93c-13 -61 -50 -122 -100 -162c-45 -36 -106 -59 -173 -59c-156 0 -249 116 -249 266
c0 128 38 297 134 390c50 48 115 79 195 79c74 0 132 -25 177 -72c42 -44 65 -105 65 -165z" />
    <glyph glyph-name="D" unicode="D" horiz-adv-x="673" 
d="M631 453c0 -125 -37 -288 -130 -378c-50 -48 -113 -75 -206 -75h-258l125 709h227c151 0 242 -110 242 -256zM542 448c0 100 -56 179 -163 179h-142l-96 -545h165c51 0 103 21 134 52c70 69 102 219 102 314z" />
    <glyph glyph-name="E" unicode="E" horiz-adv-x="618" 
d="M629 709l-14 -82h-378l-39 -216h335l-15 -83h-333l-44 -246h382l-13 -82h-473l124 709h468z" />
    <glyph glyph-name="F" unicode="F" horiz-adv-x="582" 
d="M617 709l-14 -82h-365l-41 -232h328l-15 -82h-328l-55 -313h-90l125 709h455z" />
    <glyph glyph-name="G" unicode="G" horiz-adv-x="661" 
d="M617 491h-90c0 50 -25 98 -68 124c-27 16 -55 22 -95 22c-52 0 -97 -25 -129 -57c-73 -73 -104 -224 -104 -322c0 -58 14 -110 50 -144c27 -26 66 -42 114 -42c131 0 194 108 214 222h-188l15 82h269l-67 -376h-65v69c-44 -56 -116 -82 -184 -82c-74 0 -131 25 -172 64
c-51 48 -77 121 -77 202c0 131 35 295 133 389c50 48 118 80 198 80c84 0 144 -36 177 -68c46 -44 69 -109 69 -163z" />
    <glyph glyph-name="H" unicode="H" horiz-adv-x="716" 
d="M679 709l-125 -709h-90l58 327h-337l-58 -327h-90l125 709h90l-52 -295h337l52 295h90z" />
    <glyph glyph-name="I" unicode="I" horiz-adv-x="291" 
d="M254 709l-125 -709h-92l125 709h92z" />
    <glyph glyph-name="J" unicode="J" horiz-adv-x="507" 
d="M476 709l-93 -528c-20 -114 -100 -194 -221 -194c-48 0 -98 16 -133 51c-30 30 -49 73 -49 128c0 15 2 35 5 49h88c-2 -13 -4 -27 -4 -40c0 -64 32 -103 100 -103s114 54 125 117l92 520h90z" />
    <glyph glyph-name="K" unicode="K" horiz-adv-x="662" 
d="M687 709l-279 -270l178 -439h-98l-149 372l-176 -171l-36 -201h-90l125 709h90l-66 -374l385 374h116z" />
    <glyph glyph-name="L" unicode="L" horiz-adv-x="536" 
d="M483 83l-15 -83h-431l125 709h90l-110 -626h341z" />
    <glyph glyph-name="M" unicode="M" horiz-adv-x="879" 
d="M842 709l-125 -709h-87l108 598l-324 -588h-70l-117 593l-103 -603h-87l125 709h125l110 -577l313 577h132z" />
    <glyph glyph-name="N" unicode="N" horiz-adv-x="734" 
d="M697 709l-125 -709h-102l-243 580l-100 -580h-90l125 709h102l243 -582l100 582h90z" />
    <glyph glyph-name="O" unicode="O" horiz-adv-x="655" 
d="M613 456c0 -128 -36 -297 -132 -390c-50 -48 -112 -79 -192 -79c-156 0 -249 116 -249 266c0 128 39 297 135 390c50 48 111 79 191 79c159 0 247 -118 247 -266zM521 451c0 103 -49 186 -160 186c-52 0 -92 -24 -124 -56c-72 -72 -106 -225 -106 -323
c0 -103 52 -186 163 -186c52 0 93 23 125 55c72 72 102 226 102 324z" />
    <glyph glyph-name="P" unicode="P" horiz-adv-x="623" 
d="M626 526c0 -159 -114 -250 -266 -250h-185l-48 -276h-90l125 709h257c112 0 207 -62 207 -183zM533 519c0 78 -61 109 -131 109h-164l-48 -272h173c101 0 170 60 170 163z" />
    <glyph glyph-name="Q" unicode="Q" horiz-adv-x="655" 
d="M613 456c0 -128 -38 -296 -132 -390l-4 -4l55 -83l-65 -45l-54 83c-36 -19 -77 -30 -124 -30c-156 0 -249 116 -249 266c0 128 39 297 135 390c50 48 111 79 191 79c159 0 247 -118 247 -266zM521 451c0 103 -49 186 -160 186c-52 0 -92 -24 -124 -56
c-72 -72 -106 -225 -106 -323c0 -103 52 -186 163 -186c27 0 52 6 73 17l-69 106l63 45l67 -103c66 75 93 220 93 314z" />
    <glyph glyph-name="R" unicode="R" horiz-adv-x="662" 
d="M635 521c0 -67 -29 -124 -65 -157c-28 -26 -63 -44 -104 -55l97 -309h-94l-92 297h-198l-52 -297h-90l125 709h267c124 0 206 -80 206 -188zM541 521c0 65 -45 107 -125 107h-178l-44 -251h184c102 0 163 51 163 144z" />
    <glyph glyph-name="S" unicode="S" horiz-adv-x="629" 
d="M595 496h-93c0 28 -6 53 -21 77c-27 44 -73 66 -136 66c-42 0 -84 -12 -115 -40c-25 -22 -40 -51 -40 -85c0 -55 39 -85 89 -97l113 -28c100 -25 164 -91 164 -182c0 -61 -22 -110 -58 -145c-51 -51 -129 -75 -208 -75c-83 0 -164 27 -216 90c-37 46 -53 97 -53 159h93
c0 -40 9 -77 36 -109c39 -46 98 -58 151 -58c47 0 94 14 126 45c21 20 35 47 35 82c0 46 -30 89 -100 107l-108 27c-89 22 -157 77 -157 176c0 67 32 124 87 164c44 32 95 51 170 51c73 0 150 -25 198 -89c28 -37 43 -88 43 -136z" />
    <glyph glyph-name="T" unicode="T" horiz-adv-x="536" 
d="M586 709l-15 -83h-211l-109 -626h-91l110 626h-211l15 83h512z" />
    <glyph glyph-name="U" unicode="U" horiz-adv-x="692" 
d="M670 709l-83 -471c-26 -147 -123 -251 -278 -251c-144 0 -241 88 -241 224c0 22 2 45 6 67l76 431h90l-78 -441c-3 -18 -5 -36 -5 -54c0 -96 61 -142 157 -142c102 0 166 72 183 168l83 469h90z" />
    <glyph glyph-name="V" unicode="V" horiz-adv-x="568" 
d="M628 709l-366 -709h-91l-114 709h88l89 -597l297 597h97z" />
    <glyph glyph-name="W" unicode="W" horiz-adv-x="854" 
d="M886 709l-266 -709h-91l-66 572l-259 -572h-99l-18 709h84l11 -575l261 565h80l68 -562l210 572h85z" />
    <glyph glyph-name="X" unicode="X" horiz-adv-x="580" 
d="M625 709l-283 -351l161 -358h-95l-129 291l-229 -291h-103l287 358l-158 351h95l127 -287l226 287h101z" />
    <glyph glyph-name="Y" unicode="Y" horiz-adv-x="555" 
d="M618 709l-313 -422l-50 -287h-91l52 287l-161 422h91l127 -337l244 337h101z" />
    <glyph glyph-name="Z" unicode="Z" horiz-adv-x="612" 
d="M613 709l-16 -90l-495 -537h410l-15 -82h-516l16 89l493 537h-395l15 83h503z" />
    <glyph glyph-name="bracketleft" unicode="[" horiz-adv-x="307" 
d="M363 757l-11 -62h-119l-132 -747h119l-11 -62h-188l154 871h188z" />
    <glyph glyph-name="backslash" unicode="\" horiz-adv-x="396" 
d="M311 -13h-66l-175 735h66z" />
    <glyph glyph-name="bracketright" unicode="]" horiz-adv-x="307" 
d="M274 757l-154 -871h-188l11 62h118l132 747h-118l11 62h188z" />
    <glyph glyph-name="asciicircum" unicode="^" horiz-adv-x="538" 
d="M483 405h-89l-117 225l-118 -225h-88l168 317h76z" />
    <glyph glyph-name="underscore" unicode="_" horiz-adv-x="541" 
d="M456 -60h-495v60h495v-60z" />
    <glyph glyph-name="grave" unicode="`" horiz-adv-x="236" 
d="M266 598l-35 -45l-168 99l54 69z" />
    <glyph glyph-name="a" unicode="a" horiz-adv-x="567" 
d="M509 506l-89 -506h-65v75c-28 -51 -93 -88 -150 -88c-51 0 -93 18 -123 50c-40 42 -56 99 -56 166c0 91 31 189 96 252c39 38 92 64 154 64c26 0 54 -6 79 -19s47 -34 59 -59l25 65h70zM386 314c0 32 -5 59 -19 83c-16 27 -44 49 -86 49c-37 0 -71 -18 -96 -43
c-50 -51 -72 -137 -72 -200c0 -39 6 -79 32 -109c17 -20 41 -34 73 -34c105 0 168 143 168 254z" />
    <glyph glyph-name="b" unicode="b" horiz-adv-x="583" 
d="M520 303c0 -94 -35 -200 -103 -262c-37 -34 -85 -54 -143 -54c-57 0 -121 28 -150 84l-25 -71h-71l127 722h85l-46 -265c35 40 83 62 143 62c54 0 107 -24 138 -65c33 -44 45 -98 45 -151zM433 303c0 72 -33 143 -116 143c-31 0 -53 -9 -74 -25c-39 -29 -67 -77 -79 -127
c-7 -29 -12 -58 -12 -88c0 -75 33 -146 120 -146c34 0 65 14 89 37c52 49 72 136 72 206z" />
    <glyph glyph-name="c" unicode="c" horiz-adv-x="521" 
d="M473 339c0 -5 -1 -11 -1 -16h-87c0 4 1 7 1 11c0 67 -43 112 -110 112c-41 0 -72 -18 -96 -43c-49 -50 -67 -138 -67 -205c0 -44 12 -82 38 -107c20 -19 46 -31 82 -31c63 0 108 42 127 99h85c-16 -101 -111 -172 -216 -172c-120 0 -203 84 -203 208
c0 153 79 324 254 324c108 0 193 -67 193 -180z" />
    <glyph glyph-name="d" unicode="d" horiz-adv-x="583" 
d="M562 722l-127 -722h-71v64c-35 -53 -96 -77 -152 -77c-51 0 -102 25 -134 65c-34 42 -48 98 -48 151c0 87 31 183 91 246c40 42 95 70 162 70c56 0 120 -27 143 -83l50 286h86zM397 300c0 75 -28 146 -115 146c-34 0 -64 -15 -88 -38c-52 -49 -76 -135 -76 -205
c0 -72 31 -143 114 -143c31 0 55 11 76 27c39 29 65 75 77 125c7 29 12 58 12 88z" />
    <glyph glyph-name="e" unicode="e" horiz-adv-x="539" 
d="M483 308c0 -29 -4 -58 -10 -82h-359c-1 -9 -1 -18 -1 -27c0 -83 47 -139 128 -139c53 0 97 32 119 82h88c-31 -97 -116 -155 -216 -155c-71 0 -133 29 -171 90c-23 38 -35 85 -35 134c0 89 33 181 94 241c42 42 97 67 165 67c55 0 106 -18 143 -58c38 -41 55 -98 55 -153
zM397 318c0 70 -40 129 -117 129c-41 0 -77 -21 -102 -47c-26 -26 -43 -63 -53 -101h271c1 7 1 12 1 19z" />
    <glyph glyph-name="f" unicode="f" horiz-adv-x="362" 
d="M420 706l-13 -72c-30 11 -50 18 -86 18c-40 0 -72 -25 -79 -63l-15 -83h147l-13 -72h-147l-76 -434h-85l77 434h-92l13 72h91l17 96c12 67 70 123 158 123c45 0 71 -9 103 -19z" />
    <glyph glyph-name="g" unicode="g" horiz-adv-x="526" 
d="M527 552l-12 -69c-6 2 -19 3 -26 3c-25 0 -48 -12 -58 -32c23 -28 34 -64 34 -100c0 -57 -26 -112 -69 -149c-34 -29 -86 -47 -142 -47c-32 0 -61 5 -87 17c-16 -4 -36 -14 -48 -27c-8 -8 -12 -18 -12 -29c0 -20 17 -35 44 -38l145 -15c84 -9 146 -56 146 -129
c0 -47 -18 -81 -45 -108c-48 -47 -124 -64 -209 -64c-60 0 -130 14 -173 60c-20 21 -35 53 -35 89c0 53 38 103 90 123c-22 15 -39 38 -39 66c0 35 11 56 36 80c14 13 31 22 48 30c-29 30 -46 69 -46 113c0 58 27 112 72 148c35 28 84 45 138 45c39 0 75 -8 107 -27
c22 42 63 64 105 64c12 0 24 -1 36 -4zM380 352c0 64 -47 98 -107 98c-73 0 -120 -59 -120 -124c0 -64 45 -100 106 -100c71 0 121 57 121 126zM357 -69c0 38 -32 59 -87 65l-128 14c-48 -8 -85 -36 -85 -87c0 -19 8 -36 21 -50c27 -28 78 -36 115 -36c59 0 110 9 141 40
c14 14 23 29 23 54z" />
    <glyph glyph-name="h" unicode="h" horiz-adv-x="575" 
d="M496 382c0 -20 -5 -53 -8 -72l-55 -310h-85l54 304c2 11 7 45 7 56c0 27 -4 46 -19 61c-14 14 -34 23 -66 23c-49 0 -96 -37 -122 -76c-24 -36 -38 -79 -45 -121l-44 -247h-85l127 722h85l-49 -279c37 47 100 76 159 76c47 0 85 -14 111 -40c27 -27 35 -61 35 -97z" />
    <glyph glyph-name="i" unicode="i" horiz-adv-x="268" 
d="M249 722l-18 -100h-99l18 100h99zM205 506l-90 -506h-87l90 506h87z" />
    <glyph glyph-name="j" unicode="j" horiz-adv-x="279" 
d="M256 722l-18 -100h-99l18 100h99zM213 506l-106 -600c-13 -75 -59 -120 -131 -120c-34 0 -64 9 -94 25l12 66c17 -10 46 -18 65 -18c30 0 56 17 63 54l105 593h86z" />
    <glyph glyph-name="k" unicode="k" horiz-adv-x="538" 
d="M533 506c0 0 -92 -85 -218 -202l148 -304h-91l-120 246l-114 -107l-25 -139h-85l128 722h85l-82 -465l267 249h107z" />
    <glyph glyph-name="l" unicode="l" horiz-adv-x="287" 
d="M240 722l-108 -608c-1 -4 -1 -8 -1 -11c0 -22 11 -35 38 -35c9 0 27 2 40 6l-12 -69c-17 -7 -37 -11 -60 -11c-32 0 -55 10 -70 27s-22 36 -22 65c0 8 1 20 6 48l104 588h85z" />
    <glyph glyph-name="m" unicode="m" horiz-adv-x="862" 
d="M331 0l57 322c3 16 4 31 4 44c0 37 -15 77 -82 77c-32 0 -58 -15 -82 -36c-35 -30 -56 -78 -67 -138l-48 -269h-85l89 506h69v-66c37 57 95 79 152 79c72 0 122 -38 134 -94c33 52 96 94 171 94c48 0 90 -19 115 -52c17 -22 25 -47 25 -82c0 -14 -1 -30 -4 -46l-60 -339
h-85l57 322c3 16 4 31 4 44c0 37 -15 77 -82 77c-32 0 -58 -15 -82 -36c-35 -30 -56 -78 -67 -138l-48 -269h-85z" />
    <glyph glyph-name="n" unicode="n" horiz-adv-x="575" 
d="M496 382c0 -20 -5 -53 -8 -72l-55 -310h-85l54 304c2 11 7 45 7 56c0 27 -4 46 -19 61c-14 14 -34 23 -66 23c-49 0 -96 -37 -122 -76c-24 -36 -38 -79 -45 -121l-44 -247h-85l89 506h69v-70c36 51 103 83 164 83c47 0 85 -14 111 -40c27 -27 35 -61 35 -97z" />
    <glyph glyph-name="o" unicode="o" horiz-adv-x="542" 
d="M480 308c0 -152 -80 -321 -255 -321c-59 0 -114 24 -150 67c-31 37 -49 89 -49 144c0 152 80 321 255 321c59 0 114 -24 150 -67c31 -37 49 -89 49 -144zM393 306c0 74 -36 140 -119 140c-120 0 -161 -149 -161 -246c0 -74 36 -140 119 -140c120 0 161 149 161 246z" />
    <glyph glyph-name="p" unicode="p" horiz-adv-x="580" 
d="M518 303c0 -146 -78 -316 -243 -316c-57 0 -121 26 -150 84l-50 -288h-84l127 723h70v-60c33 49 92 73 148 73c53 0 106 -26 137 -67c33 -44 45 -96 45 -149zM431 303c0 72 -30 144 -113 144c-31 0 -56 -9 -77 -25c-53 -40 -76 -113 -84 -176c-2 -13 -3 -27 -3 -40
c0 -75 32 -146 119 -146c34 0 64 15 88 38c52 49 70 135 70 205z" />
    <glyph glyph-name="q" unicode="q" horiz-adv-x="572" 
d="M514 506l-127 -722h-86l47 265c-33 -42 -90 -62 -142 -62c-51 0 -102 25 -134 65c-34 42 -46 98 -46 151c0 146 86 316 251 316c57 0 119 -29 140 -84l25 71h72zM390 300c0 75 -27 146 -114 146c-34 0 -64 -16 -88 -39c-52 -49 -75 -134 -75 -204c0 -72 30 -144 113 -144
c31 0 56 11 77 27c39 29 63 76 75 126c7 29 12 58 12 88z" />
    <glyph glyph-name="r" unicode="r" horiz-adv-x="383" 
d="M392 505l-14 -83c-16 6 -31 9 -53 9c-35 0 -64 -13 -88 -31c-46 -35 -69 -93 -81 -158l-43 -242h-85l89 506h69v-73c33 54 91 79 149 79c19 0 39 -2 57 -7z" />
    <glyph glyph-name="s" unicode="s" horiz-adv-x="511" 
d="M458 354h-86c0 20 -5 38 -20 57c-22 28 -57 38 -92 38c-33 0 -63 -8 -86 -33c-13 -14 -20 -30 -20 -50c0 -36 30 -53 54 -59c27 -6 66 -15 118 -29c61 -16 105 -61 105 -124c0 -48 -21 -91 -58 -121c-38 -31 -92 -46 -146 -46c-73 0 -138 21 -179 73
c-20 25 -32 58 -32 92c0 6 -1 12 0 18h85c-1 -6 0 -9 0 -14c0 -27 15 -51 33 -67c28 -25 58 -31 98 -31c32 0 64 10 87 30c15 13 26 30 26 55c0 32 -20 55 -64 65l-96 23c-29 7 -57 19 -78 39s-36 49 -37 82c-1 52 22 93 59 123c34 27 83 44 139 44c62 0 133 -24 166 -81
c16 -28 24 -52 24 -84z" />
    <glyph glyph-name="t" unicode="t" horiz-adv-x="383" 
d="M376 506l-14 -73h-148l-47 -268c-4 -24 -5 -40 -5 -46c0 -39 26 -52 63 -52c24 0 70 12 86 19l-13 -71c-33 -16 -68 -22 -103 -22c-38 0 -70 13 -91 36c-22 24 -28 50 -28 79c0 17 2 35 5 52l48 273h-100l13 73h100l23 129l90 26l-28 -155h149z" />
    <glyph glyph-name="u" unicode="u" horiz-adv-x="574" 
d="M509 506l-89 -506h-70v65c-33 -51 -95 -78 -149 -78c-44 0 -79 13 -105 36c-30 26 -47 65 -47 117c0 16 1 32 4 50l56 316h85l-55 -311c-2 -13 -3 -26 -3 -38c0 -32 9 -54 24 -70s36 -25 67 -25c37 0 65 19 88 43c38 42 55 98 65 154l44 247h85z" />
    <glyph glyph-name="v" unicode="v" horiz-adv-x="475" 
d="M489 506l-272 -506h-92l-99 506h84l75 -406l211 406h93z" />
    <glyph glyph-name="w" unicode="w" horiz-adv-x="760" 
d="M754 506l-226 -506h-80l-65 385l-197 -385h-83l-40 506h83l27 -384l193 378h69l64 -380l167 386h88z" />
    <glyph glyph-name="x" unicode="x" horiz-adv-x="496" 
d="M502 506l-222 -253l138 -253h-92l-104 201l-165 -201h-102l220 261l-127 245h91l98 -191l160 191h105z" />
    <glyph glyph-name="y" unicode="y" horiz-adv-x="497" 
d="M511 506l-347 -633c-29 -53 -71 -87 -130 -87c-40 0 -74 15 -98 31l12 66c18 -11 44 -24 74 -24c32 0 52 16 65 40l59 107l-111 500h89l82 -396l211 396h94z" />
    <glyph glyph-name="z" unicode="z" horiz-adv-x="492" 
d="M470 506l-14 -75l-350 -357h294l-14 -74h-400l14 75l350 357h-287l13 74h394z" />
    <glyph glyph-name="braceleft" unicode="{" horiz-adv-x="345" 
d="M401 758l-11 -63h-26c-73 0 -93 -36 -105 -102l-29 -161c-10 -56 -52 -101 -113 -110v-2c53 -13 82 -56 73 -112l-26 -153c-2 -13 -4 -25 -4 -38c0 -69 41 -73 98 -73l-11 -63h-27c-81 0 -130 39 -130 123c0 16 1 32 4 47l25 142c3 19 5 44 -13 63c-17 18 -44 30 -72 30
l13 72c43 -2 105 26 114 75l32 173c21 111 78 152 182 152h26z" />
    <glyph glyph-name="bar" unicode="|" horiz-adv-x="265" 
d="M167 -119h-69v877h69v-877z" />
    <glyph glyph-name="braceright" unicode="}" horiz-adv-x="345" 
d="M304 353l-13 -72c-60 3 -108 -36 -117 -88l-26 -147c-20 -116 -62 -165 -185 -165h-26l11 63h26c72 0 94 43 105 102l29 161c10 56 56 103 117 112v2c-61 15 -86 60 -75 125l24 138c15 84 -5 111 -94 111l11 63h27c112 0 146 -59 129 -155l-28 -157c-3 -19 -7 -47 11 -66
c17 -18 46 -27 74 -27z" />
    <glyph glyph-name="asciitilde" unicode="~" horiz-adv-x="635" 
d="M546 311c-63 -65 -99 -78 -147 -78c-37 0 -78 15 -117 34c-25 12 -51 26 -79 26c-27 0 -53 -4 -97 -49l-49 56c62 65 99 78 147 78c28 0 54 -7 80 -17s51 -24 76 -33c13 -5 26 -8 39 -8c27 0 53 3 97 48z" />
    <glyph glyph-name="uni00A0" unicode="&#xa0;" horiz-adv-x="222" 
 />
    <glyph glyph-name="exclamdown" unicode="&#xa1;" horiz-adv-x="327" 
d="M262 503l-20 -109h-107l20 109h107zM201 288l-23 -270l-40 -224h-106l40 224l71 270h58z" />
    <glyph glyph-name="cent" unicode="&#xa2;" 
d="M508 437c0 -5 -1 -11 -1 -16h-87c0 4 1 7 1 11c0 54 -28 94 -74 107l-68 -381c57 5 98 45 116 99h85c-16 -100 -110 -171 -214 -172l-15 -85h-61l16 92c-88 23 -145 98 -145 201c0 149 74 314 239 324l16 92h61l-17 -96c86 -16 148 -79 148 -176zM286 542
c-29 -6 -52 -21 -71 -41c-49 -50 -67 -138 -67 -205c0 -44 12 -82 38 -107c10 -9 21 -17 34 -22z" />
    <glyph glyph-name="sterling" unicode="&#xa3;" 
d="M547 555c0 -9 -1 -19 -3 -28h-85c1 7 3 15 3 22c0 55 -34 86 -91 86c-66 0 -103 -60 -112 -110l-21 -121h161l-13 -73h-160l-32 -179c-6 -31 -21 -65 -55 -74v-2h206c53 0 82 36 91 81h84c-12 -102 -83 -157 -191 -157h-325l14 79c52 1 82 29 91 80l30 172h-80l13 73h80
l21 121c19 111 97 185 207 185c99 0 167 -64 167 -155z" />
    <glyph glyph-name="currency" unicode="&#xa4;" 
d="M538 52l-64 -64l-70 78c-37 -26 -80 -41 -129 -41s-91 15 -129 41l-69 -78l-65 64l79 68c-26 37 -42 86 -42 134s16 97 42 134l-79 65l66 66l67 -77c38 26 81 40 130 40s92 -14 129 -40l69 78l65 -67l-78 -65c26 -37 42 -86 42 -134s-16 -97 -42 -134zM420 254
c0 83 -55 150 -145 150c-98 0 -145 -64 -145 -150c0 -78 51 -151 145 -151s145 67 145 151z" />
    <glyph glyph-name="yen" unicode="&#xa5;" 
d="M579 695l-234 -313h132l-11 -61h-176l-16 -91h176l-10 -61h-176l-30 -169h-86l30 169h-164l10 61h165l16 91h-165l11 61h121l-123 313h89l120 -309l222 309h99z" />
    <glyph glyph-name="brokenbar" unicode="&#xa6;" horiz-adv-x="272" 
d="M182 450h-76v309h76v-309zM182 -50h-76v308h76v-308z" />
    <glyph glyph-name="section" unicode="&#xa7;" horiz-adv-x="558" 
d="M509 569c0 -12 -2 -26 -4 -38h-83c2 9 3 19 3 28c0 49 -39 80 -88 80c-59 0 -106 -37 -106 -100c0 -26 11 -52 29 -70l172 -171c29 -28 45 -69 45 -109c0 -76 -50 -127 -113 -161c17 -24 24 -55 24 -84c0 -116 -88 -187 -199 -187c-88 0 -163 59 -163 142c0 12 1 26 3 38
h83c-2 -9 -2 -19 -2 -28c0 -51 39 -80 88 -80c57 0 106 40 106 100c0 26 -11 52 -29 70l-172 171c-29 28 -45 69 -45 109c0 76 50 127 113 161c-17 24 -24 55 -24 84c0 116 87 187 198 187c83 0 164 -55 164 -142zM392 173c0 22 -8 47 -24 63l-156 158
c-39 -19 -69 -53 -69 -98c0 -22 8 -48 24 -64l156 -158c39 19 69 54 69 99z" />
    <glyph glyph-name="dieresis" unicode="&#xa8;" horiz-adv-x="286" 
d="M336 691l-16 -92h-92l16 92h92zM160 691l-16 -92h-92l16 92h92z" />
    <glyph glyph-name="copyright" unicode="&#xa9;" horiz-adv-x="858" 
d="M790 355c0 -205 -154 -368 -361 -368s-361 162 -361 367s154 368 361 368s361 -162 361 -367zM723 355c0 175 -117 303 -294 303s-294 -129 -294 -304s117 -303 294 -303s294 129 294 304zM601 300c-8 -86 -77 -144 -166 -144c-62 0 -111 29 -141 72
c-28 40 -38 76 -38 126c0 106 65 198 179 198c92 0 159 -60 166 -144h-76c-7 54 -45 79 -90 79c-31 0 -57 -14 -74 -35c-21 -26 -30 -62 -30 -98s8 -72 29 -98c17 -21 44 -35 75 -35c45 0 83 25 90 79h76z" />
    <glyph glyph-name="ordfeminine" unicode="&#xaa;" horiz-adv-x="480" 
d="M426 315c-15 -8 -28 -10 -44 -10c-34 0 -56 25 -58 56c-23 -37 -68 -60 -121 -60c-89 0 -134 59 -134 120c0 50 33 115 139 122l113 7v26c0 19 -1 43 -18 58c-12 11 -31 19 -62 19c-34 0 -55 -9 -68 -22c-12 -12 -18 -28 -18 -48h-67c2 88 72 126 153 126
c75 0 119 -32 137 -75c8 -18 10 -38 10 -60v-186c0 -20 8 -24 20 -24c6 0 18 2 18 2v-51zM321 475v21l-100 -6c-39 -2 -82 -20 -82 -67c0 -33 20 -64 74 -64c29 0 56 9 76 30c23 23 32 55 32 86z" />
    <glyph glyph-name="guillemotleft" unicode="&#xab;" horiz-adv-x="546" 
d="M521 485l-151 -189l83 -195l-61 -34l-125 233l204 228zM288 485l-152 -189l84 -195l-62 -34l-125 233l205 228z" />
    <glyph glyph-name="logicalnot" unicode="&#xac;" horiz-adv-x="621" 
d="M538 99h-78v165h-407v77h485v-242z" />
    <glyph glyph-name="uni00AD" unicode="&#xad;" horiz-adv-x="433" 
d="M363 341l-14 -79h-297l14 79h297z" />
    <glyph glyph-name="registered" unicode="&#xae;" horiz-adv-x="858" 
d="M790 355c0 -205 -154 -368 -361 -368s-361 162 -361 367s154 368 361 368s361 -162 361 -367zM723 355c0 175 -117 303 -294 303s-294 -129 -294 -304s117 -303 294 -303s294 129 294 304zM583 169h-73l-64 141h-75v-141h-67v383h141c73 0 136 -42 136 -120
c0 -50 -22 -90 -69 -111zM511 432c0 39 -30 58 -66 58h-75v-118h75c40 0 66 18 66 60z" />
    <glyph glyph-name="macron" unicode="&#xaf;" horiz-adv-x="292" 
d="M342 656l-12 -68h-278l12 68h278z" />
    <glyph glyph-name="degree" unicode="&#xb0;" horiz-adv-x="457" 
d="M430 558c0 -96 -72 -164 -166 -164s-165 68 -165 164s71 164 165 164s166 -68 166 -164zM355 558c0 55 -39 93 -91 93s-90 -38 -90 -93s38 -93 90 -93s91 38 91 93z" />
    <glyph glyph-name="plusminus" unicode="&#xb1;" horiz-adv-x="565" 
d="M502 332h-184v-187h-70v187h-185v70h185v185h70v-185h184v-70zM502 0h-439v69h439v-69z" />
    <glyph glyph-name="twosuperior" unicode="&#xb2;" horiz-adv-x="457" 
d="M396 615c0 -67 -51 -105 -100 -140l-91 -66h166l-11 -66h-274l11 63l176 130c24 18 51 39 51 72c0 30 -26 45 -52 45c-44 0 -73 -28 -81 -70h-71c16 81 78 133 161 133c63 0 115 -40 115 -101z" />
    <glyph glyph-name="threesuperior" unicode="&#xb3;" horiz-adv-x="426" 
d="M398 620c0 -43 -30 -80 -72 -90c29 -8 50 -44 50 -69c0 -87 -78 -125 -155 -125c-65 0 -127 40 -127 110c0 5 0 10 1 15h67c-1 -4 -1 -9 -1 -13c0 -17 8 -32 20 -41c13 -10 30 -14 46 -14c37 0 78 18 78 60c0 46 -51 49 -85 49l10 57c40 0 96 0 96 55c0 29 -25 47 -57 47
c-42 0 -70 -22 -78 -63h-71c7 37 23 67 49 87c28 22 60 32 106 32c39 0 79 -13 102 -41c12 -15 21 -33 21 -56z" />
    <glyph glyph-name="acute" unicode="&#xb4;" horiz-adv-x="240" 
d="M279 650l-202 -99l-25 50l192 122z" />
    <glyph glyph-name="mu" unicode="&#xb5;" horiz-adv-x="586" 
d="M487 0h-74l-7 77c-26 -58 -91 -89 -150 -89c-34 0 -70 12 -88 26v-214h-85v706h85v-320c0 -76 28 -121 108 -121c34 0 62 15 84 38c32 33 42 88 42 140v263h85v-506z" />
    <glyph glyph-name="paragraph" unicode="&#xb6;" horiz-adv-x="653" 
d="M637 709l-12 -69h-69l-134 -765h-73l134 765h-112l-134 -765h-75l80 457c-87 0 -158 73 -158 163c0 126 97 214 229 214h324z" />
    <glyph glyph-name="periodcentered" unicode="&#xb7;" horiz-adv-x="294" 
d="M208 366l-21 -119h-118l21 119h118z" />
    <glyph glyph-name="cedilla" unicode="&#xb8;" horiz-adv-x="170" 
d="M114 -59l-100 -176l-81 41l103 135h78z" />
    <glyph glyph-name="onesuperior" unicode="&#xb9;" horiz-adv-x="336" 
d="M279 709l-65 -364h-70l50 282l-103 -63l14 78l109 67h65z" />
    <glyph glyph-name="ordmasculine" unicode="&#xba;" horiz-adv-x="480" 
d="M435 505c0 -61 -12 -117 -54 -159c-28 -28 -68 -46 -117 -46s-88 18 -116 46c-42 42 -55 98 -55 159s13 116 55 158c28 28 67 46 116 46s89 -18 117 -46c42 -42 54 -97 54 -158zM365 505c0 45 -7 90 -34 118c-15 16 -37 26 -67 26s-51 -10 -66 -26
c-27 -28 -34 -73 -34 -118s7 -91 34 -119c15 -16 36 -26 66 -26s52 10 67 26c27 28 34 74 34 119z" />
    <glyph glyph-name="guillemotright" unicode="&#xbb;" horiz-adv-x="546" 
d="M497 296l-204 -228l-50 43l151 189l-85 194l62 33zM264 296l-205 -228l-50 43l152 189l-86 194l62 33z" />
    <glyph glyph-name="onequarter" unicode="&#xbc;" horiz-adv-x="861" 
d="M755 134l-11 -59h-59l-13 -75h-68l13 75h-179l12 69l184 225h81l-190 -235h103l13 78h68l-13 -78h59zM767 685l-641 -706l-47 42l639 704zM307 709l-65 -364h-70l50 282l-103 -63l14 78l109 67h65z" />
    <glyph glyph-name="onehalf" unicode="&#xbd;" horiz-adv-x="893" 
d="M782 272c0 -67 -51 -105 -100 -140l-91 -66h166l-11 -66h-274l11 63l176 130c24 18 51 39 51 72c0 30 -26 45 -52 45c-44 0 -73 -28 -81 -70h-71c16 81 78 133 161 133c63 0 115 -40 115 -101zM767 685l-641 -706l-47 42l639 704zM307 709l-65 -364h-70l50 282l-103 -63
l14 78l109 67h65z" />
    <glyph glyph-name="threequarters" unicode="&#xbe;" horiz-adv-x="912" 
d="M806 134l-11 -59h-59l-13 -75h-68l13 75h-179l12 69l184 225h81l-190 -235h103l13 78h68l-13 -78h59zM818 685l-641 -706l-47 42l639 704zM398 620c0 -43 -30 -80 -72 -90c29 -8 50 -44 50 -69c0 -87 -78 -125 -155 -125c-65 0 -127 40 -127 110c0 5 0 10 1 15h67
c-1 -4 -1 -9 -1 -13c0 -17 8 -32 20 -41c13 -10 30 -14 46 -14c37 0 78 18 78 60c0 46 -51 49 -85 49l10 57c40 0 96 0 96 55c0 29 -25 47 -57 47c-42 0 -70 -22 -78 -63h-71c7 37 23 67 49 87c28 22 60 32 106 32c39 0 79 -13 102 -41c12 -15 21 -33 21 -56z" />
    <glyph glyph-name="questiondown" unicode="&#xbf;" horiz-adv-x="495" 
d="M376 506l-19 -110h-107l19 110h107zM449 -7c-10 -55 -29 -102 -69 -142c-41 -41 -105 -67 -175 -67c-65 0 -113 21 -147 54c-32 31 -48 71 -48 116c0 62 26 109 63 148c45 47 98 65 135 104c22 23 35 50 41 86l4 25h78l-4 -35c-6 -56 -23 -92 -49 -120
c-38 -41 -89 -61 -128 -99c-26 -25 -52 -49 -52 -105c0 -25 9 -45 22 -61c20 -24 53 -36 90 -36c86 0 135 58 148 132h91z" />
    <glyph glyph-name="Agrave" unicode="&#xc0;" horiz-adv-x="615" 
d="M486 802l-35 -45l-168 99l54 69zM550 0h-89l-28 168h-309l-86 -168h-94l375 709h104zM418 252l-62 368l-189 -368h251z" />
    <glyph glyph-name="Aacute" unicode="&#xc1;" horiz-adv-x="615" 
d="M495 853l-202 -99l-25 50l192 122zM550 0h-89l-28 168h-309l-86 -168h-94l375 709h104zM418 252l-62 368l-189 -368h251z" />
    <glyph glyph-name="Acircumflex" unicode="&#xc2;" horiz-adv-x="615" 
d="M225 805l148 113h57l106 -115l-53 -49l-89 98l-127 -97zM550 0h-89l-28 168h-309l-86 -168h-94l375 709h104zM418 252l-62 368l-189 -368h251z" />
    <glyph glyph-name="Atilde" unicode="&#xc3;" horiz-adv-x="615" 
d="M548 834c-30 -31 -67 -54 -111 -54c-60 0 -81 42 -124 42c-27 0 -46 -11 -66 -28l-32 42c32 30 66 54 111 54c55 0 78 -44 124 -44c26 0 50 13 68 30zM550 0h-89l-28 168h-309l-86 -168h-94l375 709h104zM418 252l-62 368l-189 -368h251z" />
    <glyph glyph-name="Adieresis" unicode="&#xc4;" horiz-adv-x="615" 
d="M531 881l-16 -92h-92l16 92h92zM355 881l-16 -92h-92l16 92h92zM550 0h-89l-28 168h-309l-86 -168h-94l375 709h104zM418 252l-62 368l-189 -368h251z" />
    <glyph glyph-name="Aring" unicode="&#xc5;" horiz-adv-x="615" 
d="M550 0h-89l-28 168h-309l-86 -168h-94l358 676c-29 22 -46 57 -46 94c0 61 45 118 121 118s122 -57 122 -118c0 -45 -25 -87 -68 -107zM437 770c0 33 -23 62 -60 62s-60 -29 -60 -62c0 -29 18 -56 48 -61h24c30 5 48 32 48 61zM418 252l-62 368l-189 -368h251z" />
    <glyph glyph-name="AE" unicode="&#xc6;" horiz-adv-x="910" 
d="M921 709l-15 -83h-333l-36 -205h286l-15 -84h-286l-45 -253h338l-15 -84h-428l34 189h-252l-116 -189h-101l446 709h538zM483 629h-58l-219 -356h215z" />
    <glyph glyph-name="Ccedilla" unicode="&#xc7;" horiz-adv-x="618" 
d="M611 485h-92c0 46 -17 85 -45 112c-29 28 -63 40 -110 40c-52 0 -96 -24 -128 -56c-72 -72 -105 -225 -105 -323c0 -103 52 -186 163 -186c47 0 92 18 120 46c28 27 46 54 55 90h93c-13 -61 -50 -122 -100 -162c-45 -36 -106 -59 -173 -59c-156 0 -249 116 -249 266
c0 128 38 297 134 390c50 48 115 79 195 79c74 0 132 -25 177 -72c42 -44 65 -105 65 -165zM310 -56l-100 -176l-81 41l103 135h78z" />
    <glyph glyph-name="Egrave" unicode="&#xc8;" horiz-adv-x="618" 
d="M511 806l-35 -45l-168 99l54 69zM629 709l-14 -82h-378l-39 -216h335l-15 -83h-333l-44 -246h382l-13 -82h-473l124 709h468z" />
    <glyph glyph-name="Eacute" unicode="&#xc9;" horiz-adv-x="618" 
d="M538 853l-202 -99l-25 50l192 122zM629 709l-14 -82h-378l-39 -216h335l-15 -83h-333l-44 -246h382l-13 -82h-473l124 709h468z" />
    <glyph glyph-name="Ecircumflex" unicode="&#xca;" horiz-adv-x="618" 
d="M629 709l-14 -82h-378l-39 -216h335l-15 -83h-333l-44 -246h382l-13 -82h-473l124 709h468zM242 805l148 113h57l106 -115l-53 -49l-89 98l-127 -97z" />
    <glyph glyph-name="Edieresis" unicode="&#xcb;" horiz-adv-x="618" 
d="M558 881l-16 -92h-92l16 92h92zM382 881l-16 -92h-92l16 92h92zM629 709l-14 -82h-378l-39 -216h335l-15 -83h-333l-44 -246h382l-13 -82h-473l124 709h468z" />
    <glyph glyph-name="Igrave" unicode="&#xcc;" horiz-adv-x="291" 
d="M319 802l-35 -45l-168 99l54 69zM254 709l-125 -709h-92l125 709h92z" />
    <glyph glyph-name="Iacute" unicode="&#xcd;" horiz-adv-x="291" 
d="M324 853l-202 -99l-25 50l192 122zM251 709l-125 -709h-92l125 709h92z" />
    <glyph glyph-name="Icircumflex" unicode="&#xce;" horiz-adv-x="291" 
d="M254 709l-125 -709h-92l125 709h92zM66 805l148 113h57l106 -115l-53 -49l-89 98l-127 -97z" />
    <glyph glyph-name="Idieresis" unicode="&#xcf;" horiz-adv-x="291" 
d="M367 881l-16 -92h-92l16 92h92zM191 881l-16 -92h-92l16 92h92zM251 709l-125 -709h-92l125 709h92z" />
    <glyph glyph-name="Eth" unicode="&#xd0;" horiz-adv-x="673" 
d="M631 453c0 -125 -37 -288 -130 -378c-50 -48 -113 -75 -206 -75h-258l59 335h-51l12 66h51l54 308h227c151 0 242 -110 242 -256zM542 448c0 100 -56 179 -163 179h-142l-40 -226h168l-12 -66h-167l-45 -253h165c51 0 103 21 134 52c70 69 102 219 102 314z" />
    <glyph glyph-name="Ntilde" unicode="&#xd1;" horiz-adv-x="734" 
d="M600 828c-30 -31 -67 -54 -111 -54c-60 0 -81 42 -124 42c-27 0 -46 -11 -66 -28l-32 42c32 30 66 54 111 54c55 0 78 -44 124 -44c26 0 50 13 68 30zM694 709l-125 -709h-102l-243 580l-100 -580h-90l125 709h102l243 -582l100 582h90z" />
    <glyph glyph-name="Ograve" unicode="&#xd2;" horiz-adv-x="655" 
d="M513 810l-35 -45l-168 99l54 69zM613 456c0 -128 -36 -297 -132 -390c-50 -48 -112 -79 -192 -79c-156 0 -249 116 -249 266c0 128 39 297 135 390c50 48 111 79 191 79c159 0 247 -118 247 -266zM521 451c0 103 -49 186 -160 186c-52 0 -92 -24 -124 -56
c-72 -72 -106 -225 -106 -323c0 -103 52 -186 163 -186c52 0 93 23 125 55c72 72 102 226 102 324z" />
    <glyph glyph-name="Oacute" unicode="&#xd3;" horiz-adv-x="655" 
d="M510 858l-202 -99l-25 50l192 122zM613 456c0 -128 -36 -297 -132 -390c-50 -48 -112 -79 -192 -79c-156 0 -249 116 -249 266c0 128 39 297 135 390c50 48 111 79 191 79c159 0 247 -118 247 -266zM521 451c0 103 -49 186 -160 186c-52 0 -92 -24 -124 -56
c-72 -72 -106 -225 -106 -323c0 -103 52 -186 163 -186c52 0 93 23 125 55c72 72 102 226 102 324z" />
    <glyph glyph-name="Ocircumflex" unicode="&#xd4;" horiz-adv-x="655" 
d="M613 456c0 -128 -36 -297 -132 -390c-50 -48 -112 -79 -192 -79c-156 0 -249 116 -249 266c0 128 39 297 135 390c50 48 111 79 191 79c159 0 247 -118 247 -266zM521 451c0 103 -49 186 -160 186c-52 0 -92 -24 -124 -56c-72 -72 -106 -225 -106 -323
c0 -103 52 -186 163 -186c52 0 93 23 125 55c72 72 102 226 102 324zM242 805l148 113h57l106 -115l-53 -49l-89 98l-127 -97z" />
    <glyph glyph-name="Otilde" unicode="&#xd5;" horiz-adv-x="655" 
d="M574 834c-30 -31 -67 -54 -111 -54c-60 0 -81 42 -124 42c-27 0 -46 -11 -66 -28l-32 42c32 30 66 54 111 54c55 0 78 -44 124 -44c26 0 50 13 68 30zM613 456c0 -128 -36 -297 -132 -390c-50 -48 -112 -79 -192 -79c-156 0 -249 116 -249 266c0 128 39 297 135 390
c50 48 111 79 191 79c159 0 247 -118 247 -266zM521 451c0 103 -49 186 -160 186c-52 0 -92 -24 -124 -56c-72 -72 -106 -225 -106 -323c0 -103 52 -186 163 -186c52 0 93 23 125 55c72 72 102 226 102 324z" />
    <glyph glyph-name="Odieresis" unicode="&#xd6;" horiz-adv-x="655" 
d="M550 883l-16 -92h-92l16 92h92zM374 883l-16 -92h-92l16 92h92zM613 456c0 -128 -36 -297 -132 -390c-50 -48 -112 -79 -192 -79c-156 0 -249 116 -249 266c0 128 39 297 135 390c50 48 111 79 191 79c159 0 247 -118 247 -266zM521 451c0 103 -49 186 -160 186
c-52 0 -92 -24 -124 -56c-72 -72 -106 -225 -106 -323c0 -103 52 -186 163 -186c52 0 93 23 125 55c72 72 102 226 102 324z" />
    <glyph glyph-name="multiply" unicode="&#xd7;" horiz-adv-x="678" 
d="M615 76l-54 -54l-222 222l-222 -222l-54 54l222 222l-222 222l54 54l221 -222l223 222l54 -54l-223 -222z" />
    <glyph glyph-name="Oslash" unicode="&#xd8;" horiz-adv-x="655" 
d="M613 456c0 -129 -36 -297 -132 -390c-50 -48 -112 -79 -192 -79c-53 0 -99 14 -136 37l-58 -93l-51 26l65 103c-45 48 -69 116 -69 193c0 128 39 297 135 390c50 48 111 79 191 79c55 0 101 -14 138 -38l53 84l50 -25l-60 -96c44 -48 66 -116 66 -191zM456 609
c-24 18 -56 28 -95 28c-52 0 -92 -24 -124 -56c-72 -72 -106 -225 -106 -323c0 -44 9 -85 29 -117zM521 451c0 43 -8 83 -26 114l-294 -466c24 -17 55 -27 93 -27c52 0 93 23 125 55c72 72 102 226 102 324z" />
    <glyph glyph-name="Ugrave" unicode="&#xd9;" horiz-adv-x="692" 
d="M515 802l-35 -45l-168 99l54 69zM670 709l-83 -471c-16 -93 -60 -166 -132 -211c-39 -25 -93 -40 -148 -40c-79 0 -142 25 -185 71c-39 43 -53 95 -53 151c0 23 1 46 5 69l76 431h90l-78 -441c-3 -18 -4 -38 -4 -56c0 -38 7 -75 37 -104c29 -28 65 -38 118 -38
c103 0 168 79 184 170l83 469h90z" />
    <glyph glyph-name="Uacute" unicode="&#xda;" horiz-adv-x="692" 
d="M538 853l-202 -99l-25 50l192 122zM670 709l-83 -471c-16 -93 -60 -166 -132 -211c-39 -25 -93 -40 -148 -40c-79 0 -142 25 -185 71c-39 43 -53 95 -53 151c0 23 1 46 5 69l76 431h90l-78 -441c-3 -18 -4 -38 -4 -56c0 -38 7 -75 37 -104c29 -28 65 -38 118 -38
c103 0 168 79 184 170l83 469h90z" />
    <glyph glyph-name="Ucircumflex" unicode="&#xdb;" horiz-adv-x="692" 
d="M670 709l-83 -471c-26 -147 -123 -251 -278 -251c-144 0 -241 88 -241 224c0 22 2 45 6 67l76 431h90l-78 -441c-3 -18 -5 -36 -5 -54c0 -96 61 -142 157 -142c102 0 166 72 183 168l83 469h90zM267 805l148 113h57l106 -115l-53 -49l-89 98l-127 -97z" />
    <glyph glyph-name="Udieresis" unicode="&#xdc;" horiz-adv-x="692" 
d="M568 882l-16 -92h-92l16 92h92zM392 882l-16 -92h-92l16 92h92zM670 709l-83 -471c-16 -93 -60 -166 -132 -211c-39 -25 -93 -40 -148 -40c-79 0 -142 25 -185 71c-39 43 -53 95 -53 151c0 23 1 46 5 69l76 431h90l-78 -441c-3 -18 -4 -38 -4 -56c0 -38 7 -75 37 -104
c29 -28 65 -38 118 -38c103 0 168 79 184 170l83 469h90z" />
    <glyph glyph-name="Yacute" unicode="&#xdd;" horiz-adv-x="555" 
d="M469 846l-202 -99l-25 50l192 122zM618 709l-313 -422l-50 -287h-91l52 287l-161 422h91l127 -337l244 337h101z" />
    <glyph glyph-name="Thorn" unicode="&#xde;" horiz-adv-x="603" 
d="M579 394c0 -159 -114 -251 -266 -251h-163l-25 -143h-90l125 710h90l-23 -133h145c112 0 207 -62 207 -183zM486 387c0 78 -61 109 -131 109h-143l-48 -272h152c101 0 170 60 170 163z" />
    <glyph glyph-name="germandbls" unicode="&#xdf;" horiz-adv-x="598" 
d="M544 564c0 -82 -50 -163 -135 -177c79 -17 125 -88 125 -167c0 -132 -97 -231 -234 -231c-36 0 -73 6 -107 17l12 70c27 -8 58 -12 86 -12c98 0 156 62 156 159c0 84 -63 128 -136 128h-27l13 74c12 -1 37 0 37 0c73 0 123 66 123 136c0 63 -42 96 -101 96
c-76 0 -121 -63 -134 -139l-90 -518h-86l74 427h-86l13 76h86l3 17c21 123 102 209 225 209c109 0 183 -71 183 -165z" />
    <glyph glyph-name="agrave" unicode="&#xe0;" horiz-adv-x="567" 
d="M416 598l-35 -45l-168 99l54 69zM509 506l-89 -506h-65v75c-28 -51 -93 -88 -150 -88c-51 0 -93 18 -123 50c-40 42 -56 99 -56 166c0 91 31 189 96 252c39 38 92 64 154 64c26 0 54 -6 79 -19s47 -34 59 -59l25 65h70zM386 314c0 32 -3 60 -18 83c-17 28 -43 49 -87 49
c-37 0 -71 -18 -96 -43c-50 -51 -72 -137 -72 -200c0 -39 6 -79 32 -109c17 -20 41 -34 73 -34c105 0 168 143 168 254z" />
    <glyph glyph-name="aacute" unicode="&#xe1;" horiz-adv-x="567" 
d="M428 654l-202 -99l-25 50l192 122zM509 506l-89 -506h-65v75c-28 -51 -93 -88 -150 -88c-51 0 -93 18 -123 50c-40 42 -56 99 -56 166c0 91 31 189 96 252c39 38 92 64 154 64c26 0 54 -6 79 -19s47 -34 59 -59l25 65h70zM386 314c0 32 -3 60 -18 83
c-17 28 -43 49 -87 49c-37 0 -71 -18 -96 -43c-50 -51 -72 -137 -72 -200c0 -39 6 -79 32 -109c17 -20 41 -34 73 -34c105 0 168 143 168 254z" />
    <glyph glyph-name="acircumflex" unicode="&#xe2;" horiz-adv-x="567" 
d="M509 506l-89 -506h-65v75c-28 -51 -93 -88 -150 -88c-51 0 -93 18 -123 50c-40 42 -56 99 -56 166c0 91 31 189 96 252c39 38 92 64 154 64c26 0 54 -6 79 -19s47 -34 59 -59l25 65h70zM386 314c0 32 -5 59 -19 83c-16 27 -44 49 -86 49c-37 0 -71 -18 -96 -43
c-50 -51 -72 -137 -72 -200c0 -39 6 -79 32 -109c17 -20 41 -34 73 -34c105 0 168 143 168 254zM164 605l130 115h55l91 -119l-52 -40l-73 92l-109 -94z" />
    <glyph glyph-name="atilde" unicode="&#xe3;" horiz-adv-x="567" 
d="M493 647c-30 -31 -67 -54 -111 -54c-60 0 -81 42 -124 42c-27 0 -46 -11 -66 -28l-32 42c32 30 66 54 111 54c55 0 78 -44 124 -44c26 0 50 13 68 30zM509 506l-89 -506h-65v75c-28 -51 -93 -88 -150 -88c-51 0 -93 18 -123 50c-40 42 -56 99 -56 166c0 91 31 189 96 252
c39 38 92 64 154 64c26 0 54 -6 79 -19s47 -34 59 -59l25 65h70zM386 314c0 32 -3 60 -18 83c-17 28 -43 49 -87 49c-37 0 -71 -18 -96 -43c-50 -51 -72 -137 -72 -200c0 -39 6 -79 32 -109c17 -20 41 -34 73 -34c105 0 168 143 168 254z" />
    <glyph glyph-name="adieresis" unicode="&#xe4;" horiz-adv-x="567" 
d="M470 694l-16 -92h-92l16 92h92zM294 694l-16 -92h-92l16 92h92zM509 506l-89 -506h-65v75c-28 -51 -93 -88 -150 -88c-51 0 -93 18 -123 50c-40 42 -56 99 -56 166c0 91 31 189 96 252c39 38 92 64 154 64c26 0 54 -6 79 -19s47 -34 59 -59l25 65h70zM386 314
c0 32 -3 60 -18 83c-17 28 -43 49 -87 49c-37 0 -71 -18 -96 -43c-50 -51 -72 -137 -72 -200c0 -39 6 -79 32 -109c17 -20 41 -34 73 -34c105 0 168 143 168 254z" />
    <glyph glyph-name="aring" unicode="&#xe5;" horiz-adv-x="567" 
d="M441 671c0 -55 -41 -107 -110 -107s-110 52 -110 107s41 107 110 107s110 -52 110 -107zM509 506l-89 -506h-65v75c-28 -51 -93 -88 -150 -88c-51 0 -93 18 -123 50c-40 42 -56 99 -56 166c0 91 31 189 96 252c39 38 92 64 154 64c26 0 54 -6 79 -19s47 -34 59 -59l25 65
h70zM385 671c0 30 -21 56 -54 56s-55 -26 -55 -56s22 -55 55 -55s54 25 54 55zM386 314c0 32 -3 60 -18 83c-17 28 -43 49 -87 49c-37 0 -71 -18 -96 -43c-50 -51 -72 -137 -72 -200c0 -39 6 -79 32 -109c17 -20 41 -34 73 -34c105 0 168 143 168 254z" />
    <glyph glyph-name="ae" unicode="&#xe6;" horiz-adv-x="845" 
d="M788 308c0 -29 -4 -58 -10 -82h-348c-1 -9 -1 -18 -1 -27c0 -83 45 -139 124 -139c51 0 94 32 116 82h85c-31 -97 -112 -155 -209 -155c-71 0 -142 38 -172 105c-32 -45 -78 -79 -131 -95c-24 -7 -47 -10 -76 -10c-48 0 -96 19 -123 50c-21 24 -35 49 -35 84
c0 110 90 177 193 177h159c5 24 7 38 7 62s-4 43 -21 61c-15 16 -38 27 -68 27s-55 -5 -76 -17c-27 -16 -47 -43 -54 -74h-83c24 109 116 162 222 162c56 0 120 -26 142 -77c13 15 31 32 48 42c34 21 73 35 119 35c58 0 103 -18 139 -58c37 -41 53 -98 53 -153zM705 318
c0 70 -40 129 -114 129c-40 0 -75 -19 -99 -45c-25 -27 -41 -64 -51 -103h263c1 7 1 12 1 19zM350 231h-140c-65 0 -115 -38 -115 -99c0 -46 40 -72 83 -72c40 0 71 11 102 37c42 35 62 87 70 134z" />
    <glyph glyph-name="ccedilla" unicode="&#xe7;" horiz-adv-x="521" 
d="M473 339c0 -5 -1 -11 -1 -16h-87c0 4 1 7 1 11c0 67 -43 112 -110 112c-41 0 -72 -18 -96 -43c-49 -50 -67 -138 -67 -205c0 -44 12 -82 38 -107c20 -19 46 -31 82 -31c63 0 108 42 127 99h85c-16 -101 -111 -172 -216 -172c-120 0 -203 84 -203 208
c0 153 79 324 254 324c108 0 193 -67 193 -180zM253 -59l-100 -176l-81 41l103 135h78z" />
    <glyph glyph-name="egrave" unicode="&#xe8;" horiz-adv-x="539" 
d="M426 598l-35 -45l-168 99l54 69zM483 308c0 -29 -4 -58 -10 -82h-359c-1 -9 -1 -18 -1 -27c0 -83 47 -139 128 -139c53 0 97 32 119 82h88c-31 -97 -116 -155 -216 -155c-71 0 -133 29 -171 90c-23 38 -35 85 -35 134c0 89 33 181 94 241c42 42 97 67 165 67
c55 0 106 -18 143 -58c38 -41 55 -98 55 -153zM397 318c0 70 -40 129 -117 129c-41 0 -77 -21 -102 -47c-26 -26 -43 -63 -53 -101h271c1 7 1 12 1 19z" />
    <glyph glyph-name="eacute" unicode="&#xe9;" horiz-adv-x="539" 
d="M443 652l-202 -99l-25 50l192 122zM483 308c0 -29 -4 -58 -10 -82h-359c-1 -9 -1 -18 -1 -27c0 -83 47 -139 128 -139c53 0 97 32 119 82h88c-31 -97 -116 -155 -216 -155c-71 0 -133 29 -171 90c-23 38 -35 85 -35 134c0 89 33 181 94 241c42 42 97 67 165 67
c55 0 106 -18 143 -58c38 -41 55 -98 55 -153zM397 318c0 70 -40 129 -117 129c-41 0 -77 -21 -102 -47c-26 -26 -43 -63 -53 -101h271c1 7 1 12 1 19z" />
    <glyph glyph-name="ecircumflex" unicode="&#xea;" horiz-adv-x="539" 
d="M483 308c0 -29 -4 -58 -10 -82h-359c-1 -9 -1 -18 -1 -27c0 -83 47 -139 128 -139c53 0 97 32 119 82h88c-31 -97 -116 -155 -216 -155c-71 0 -133 29 -171 90c-23 38 -35 85 -35 134c0 89 33 181 94 241c42 42 97 67 165 67c55 0 106 -18 143 -58c38 -41 55 -98 55 -153
zM397 318c0 70 -40 129 -117 129c-41 0 -77 -21 -102 -47c-26 -26 -43 -63 -53 -101h271c1 7 1 12 1 19zM161 605l130 115h55l91 -119l-52 -40l-73 92l-109 -94z" />
    <glyph glyph-name="edieresis" unicode="&#xeb;" horiz-adv-x="539" 
d="M463 691l-16 -92h-92l16 92h92zM287 691l-16 -92h-92l16 92h92zM483 308c0 -29 -4 -58 -10 -82h-359c-1 -9 -1 -18 -1 -27c0 -83 47 -139 128 -139c53 0 97 32 119 82h88c-31 -97 -116 -155 -216 -155c-71 0 -133 29 -171 90c-23 38 -35 85 -35 134c0 89 33 181 94 241
c42 42 97 67 165 67c55 0 106 -18 143 -58c38 -41 55 -98 55 -153zM397 318c0 70 -40 129 -117 129c-41 0 -77 -21 -102 -47c-26 -26 -43 -63 -53 -101h271c1 7 1 12 1 19z" />
    <glyph glyph-name="igrave" unicode="&#xec;" horiz-adv-x="268" 
d="M274 598l-35 -45l-168 99l54 69zM205 506l-90 -506h-87l90 506h87z" />
    <glyph glyph-name="iacute" unicode="&#xed;" horiz-adv-x="268" 
d="M301 650l-202 -99l-25 50l192 122zM206 506l-90 -506h-88l90 506h88z" />
    <glyph glyph-name="icircumflex" unicode="&#xee;" horiz-adv-x="268" 
d="M206 506l-90 -506h-88l90 506h88zM40 605l130 115h55l91 -119l-52 -40l-73 92l-109 -94z" />
    <glyph glyph-name="idieresis" unicode="&#xef;" horiz-adv-x="268" 
d="M326 691l-16 -92h-92l16 92h92zM150 691l-16 -92h-92l16 92h92zM205 506l-90 -506h-87l90 506h87z" />
    <glyph glyph-name="eth" unicode="&#xf0;" horiz-adv-x="547" 
d="M484 308c0 -152 -80 -321 -255 -321c-59 0 -115 25 -151 68c-31 37 -48 88 -48 143c0 152 80 321 255 321c19 0 38 -3 56 -8l-27 77h-120l11 59h85l-27 75h82l29 -75h102l-11 -59h-67l72 -198c9 -24 14 -57 14 -82zM397 306c0 73 -38 140 -119 140
c-120 0 -161 -149 -161 -246c0 -73 38 -140 119 -140c120 0 161 149 161 246z" />
    <glyph glyph-name="ntilde" unicode="&#xf1;" horiz-adv-x="575" 
d="M512 647c-30 -31 -67 -54 -111 -54c-60 0 -81 42 -124 42c-27 0 -46 -11 -66 -28l-32 42c32 30 66 54 111 54c55 0 78 -44 124 -44c26 0 50 13 68 30zM496 382c0 -20 -5 -53 -8 -72l-55 -310h-85l54 304c2 11 7 45 7 56c0 27 -4 46 -19 61c-14 14 -34 23 -66 23
c-49 0 -96 -37 -122 -76c-24 -36 -38 -79 -45 -121l-44 -247h-85l89 506h69v-70c36 51 103 83 164 83c47 0 85 -14 111 -40c27 -27 35 -61 35 -97z" />
    <glyph glyph-name="ograve" unicode="&#xf2;" horiz-adv-x="542" 
d="M420 598l-35 -45l-168 99l54 69zM480 308c0 -152 -80 -321 -255 -321c-59 0 -114 24 -150 67c-31 37 -49 89 -49 144c0 152 80 321 255 321c59 0 114 -24 150 -67c31 -37 49 -89 49 -144zM393 306c0 74 -36 140 -119 140c-120 0 -161 -149 -161 -246
c0 -74 36 -140 119 -140c120 0 161 149 161 246z" />
    <glyph glyph-name="oacute" unicode="&#xf3;" horiz-adv-x="542" 
d="M438 653l-202 -99l-25 50l192 122zM480 308c0 -152 -80 -321 -255 -321c-59 0 -114 24 -150 67c-31 37 -49 89 -49 144c0 152 80 321 255 321c59 0 114 -24 150 -67c31 -37 49 -89 49 -144zM393 306c0 74 -36 140 -119 140c-120 0 -161 -149 -161 -246
c0 -74 36 -140 119 -140c120 0 161 149 161 246z" />
    <glyph glyph-name="ocircumflex" unicode="&#xf4;" horiz-adv-x="542" 
d="M480 308c0 -152 -80 -321 -255 -321c-59 0 -114 24 -150 67c-31 37 -49 89 -49 144c0 152 80 321 255 321c59 0 114 -24 150 -67c31 -37 49 -89 49 -144zM393 306c0 74 -36 140 -119 140c-120 0 -161 -149 -161 -246c0 -74 36 -140 119 -140c120 0 161 149 161 246z
M164 605l130 115h55l91 -119l-52 -40l-73 92l-109 -94z" />
    <glyph glyph-name="otilde" unicode="&#xf5;" horiz-adv-x="542" 
d="M497 653c-30 -31 -67 -54 -111 -54c-60 0 -81 42 -124 42c-27 0 -46 -11 -66 -28l-32 42c32 30 66 54 111 54c55 0 78 -44 124 -44c26 0 50 13 68 30zM480 308c0 -152 -80 -321 -255 -321c-59 0 -114 24 -150 67c-31 37 -49 89 -49 144c0 152 80 321 255 321
c59 0 114 -24 150 -67c31 -37 49 -89 49 -144zM393 306c0 74 -36 140 -119 140c-120 0 -161 -149 -161 -246c0 -74 36 -140 119 -140c120 0 161 149 161 246z" />
    <glyph glyph-name="odieresis" unicode="&#xf6;" horiz-adv-x="542" 
d="M459 691l-16 -92h-92l16 92h92zM283 691l-16 -92h-92l16 92h92zM480 308c0 -152 -80 -321 -255 -321c-59 0 -114 24 -150 67c-31 37 -49 89 -49 144c0 152 80 321 255 321c59 0 114 -24 150 -67c31 -37 49 -89 49 -144zM393 306c0 74 -36 140 -119 140
c-120 0 -161 -149 -161 -246c0 -74 36 -140 119 -140c120 0 161 149 161 246z" />
    <glyph glyph-name="divide" unicode="&#xf7;" horiz-adv-x="648" 
d="M371 442h-114v118h114v-118zM567 261h-502v78h502v-78zM371 48h-114v118h114v-118z" />
    <glyph glyph-name="oslash" unicode="&#xf8;" horiz-adv-x="546" 
d="M484 557l-61 -96c39 -40 57 -98 57 -153c0 -152 -80 -321 -255 -321c-32 0 -63 7 -90 20l-54 -84l-44 29l54 85c-6 5 -11 11 -16 17c-31 37 -49 89 -49 144c0 152 80 321 255 321c36 0 71 -9 101 -26l59 92zM393 306c0 29 -5 57 -17 80l-200 -313c16 -8 34 -13 56 -13
c120 0 161 149 161 246zM340 427c-17 12 -39 19 -66 19c-120 0 -161 -149 -161 -246c0 -34 8 -67 24 -92z" />
    <glyph glyph-name="ugrave" unicode="&#xf9;" horiz-adv-x="574" 
d="M509 506l-89 -506h-70v65c-33 -51 -95 -78 -149 -78c-44 0 -79 13 -105 36c-30 26 -47 65 -47 117c0 16 1 32 4 50l56 316h85l-55 -311c-2 -13 -3 -26 -3 -38c0 -32 9 -54 24 -70s36 -25 67 -25c50 0 85 35 110 72c24 35 36 86 43 125l44 247h85zM416 598l-35 -45
l-168 99l54 69z" />
    <glyph glyph-name="uacute" unicode="&#xfa;" horiz-adv-x="574" 
d="M509 506l-89 -506h-70v65c-33 -51 -95 -78 -149 -78c-44 0 -79 13 -105 36c-30 26 -47 65 -47 117c0 16 1 32 4 50l56 316h85l-55 -311c-2 -13 -3 -26 -3 -38c0 -32 9 -54 24 -70s36 -25 67 -25c50 0 85 35 110 72c24 35 36 86 43 125l44 247h85zM451 652l-202 -99
l-25 50l192 122z" />
    <glyph glyph-name="ucircumflex" unicode="&#xfb;" horiz-adv-x="574" 
d="M509 506l-89 -506h-70v65c-33 -51 -95 -78 -149 -78c-44 0 -79 13 -105 36c-30 26 -47 65 -47 117c0 16 1 32 4 50l56 316h85l-55 -311c-2 -13 -3 -26 -3 -38c0 -32 9 -54 24 -70s36 -25 67 -25c50 0 85 35 110 72c24 35 36 86 43 125l44 247h85zM480 605l-50 -45
l-88 115l-127 -115l-40 45l148 131h55z" />
    <glyph glyph-name="udieresis" unicode="&#xfc;" horiz-adv-x="574" 
d="M509 506l-89 -506h-70v65c-33 -51 -95 -78 -149 -78c-44 0 -79 13 -105 36c-30 26 -47 65 -47 117c0 16 1 32 4 50l56 316h85l-55 -311c-2 -13 -3 -26 -3 -38c0 -32 9 -54 24 -70s36 -25 67 -25c50 0 85 35 110 72c24 35 36 86 43 125l44 247h85zM480 691l-16 -92h-92
l16 92h92zM304 691l-16 -92h-92l16 92h92z" />
    <glyph glyph-name="yacute" unicode="&#xfd;" horiz-adv-x="497" 
d="M425 652l-202 -99l-25 50l192 122zM511 506l-347 -633c-29 -53 -66 -87 -125 -87c-43 0 -77 13 -103 30l14 72c18 -11 43 -24 75 -24c27 0 49 11 65 40l56 102l-111 500h89l82 -396l211 396h94z" />
    <glyph glyph-name="thorn" unicode="&#xfe;" horiz-adv-x="582" 
d="M517 303c0 -146 -78 -316 -243 -316c-57 0 -121 26 -150 84l-50 -288h-84l165 939h85l-46 -266c34 42 89 63 141 63c53 0 106 -26 137 -67c33 -44 45 -96 45 -149zM430 303c0 72 -30 146 -113 146c-31 0 -56 -11 -77 -27c-53 -40 -76 -113 -84 -176c-2 -13 -3 -27 -3 -40
c0 -75 32 -145 119 -145c34 0 64 15 88 38c52 49 70 134 70 204z" />
    <glyph glyph-name="ydieresis" unicode="&#xff;" horiz-adv-x="497" 
d="M434 691l-16 -92h-92l16 92h92zM258 691l-16 -92h-92l16 92h92zM511 506l-347 -633c-29 -53 -71 -87 -130 -87c-40 0 -74 15 -98 31l12 66c18 -11 44 -24 74 -24c32 0 52 16 65 40l59 107l-111 500h89l82 -396l211 396h94z" />
    <glyph glyph-name="dotlessi" unicode="&#x131;" horiz-adv-x="269" 
d="M206 506l-90 -506h-88l90 506h88z" />
    <glyph glyph-name="Lslash" unicode="&#x141;" horiz-adv-x="532" 
d="M481 83l-15 -83h-431l52 295l-70 -39l-24 52l107 60l60 341h90l-50 -285l141 79l24 -53l-178 -99l-47 -268h341z" />
    <glyph glyph-name="lslash" unicode="&#x142;" horiz-adv-x="337" 
d="M332 466l-126 -70l-49 -281c-5 -27 7 -46 36 -46c9 0 27 2 40 6l-12 -70c-17 -7 -37 -11 -60 -11c-75 0 -101 58 -90 118l41 231l-63 -35l-24 52l99 56l54 306h85l-44 -253l89 50z" />
    <glyph glyph-name="OE" unicode="&#x152;" horiz-adv-x="1014" 
d="M1025 709l-14 -82h-366l-39 -216h313l-15 -84h-311l-44 -245h370l-13 -82h-461l9 52c-42 -44 -107 -65 -166 -65c-157 0 -248 115 -248 266c0 197 89 469 327 469c76 0 150 -32 187 -97l15 84h456zM519 451c0 101 -45 186 -157 186c-171 0 -231 -244 -231 -379
c0 -103 51 -186 162 -186c175 0 226 243 226 379z" />
    <glyph glyph-name="oe" unicode="&#x153;" horiz-adv-x="882" 
d="M826 308c0 -29 -3 -58 -9 -82h-353c-1 -9 -1 -18 -1 -27c0 -83 44 -139 125 -139c53 0 94 32 116 82h88c-31 -97 -113 -155 -213 -155c-74 0 -145 41 -172 111c-22 -37 -46 -64 -81 -84c-38 -21 -64 -27 -108 -27c-59 0 -108 25 -144 68c-31 37 -48 88 -48 143
c0 95 30 196 95 259c40 39 89 62 157 62c31 0 61 -9 87 -23c34 -19 61 -48 76 -83c16 25 39 49 65 67c33 23 70 39 126 39c55 0 103 -18 140 -58c38 -41 54 -98 54 -153zM741 318c0 70 -37 129 -114 129c-41 0 -77 -20 -102 -46c-26 -26 -42 -63 -51 -102h266c1 7 1 12 1 19
zM387 306c0 73 -35 140 -116 140c-120 0 -158 -149 -158 -246c0 -73 35 -140 116 -140c32 0 58 13 79 30c58 48 79 145 79 216z" />
    <glyph glyph-name="Scaron" unicode="&#x160;" horiz-adv-x="629" 
d="M595 496h-93c0 28 -6 53 -21 77c-27 44 -73 66 -136 66c-42 0 -84 -12 -115 -40c-25 -22 -40 -51 -40 -85c0 -55 39 -85 89 -97l113 -28c100 -25 164 -91 164 -182c0 -61 -22 -110 -58 -145c-51 -51 -129 -75 -208 -75c-83 0 -164 27 -216 90c-37 46 -53 97 -53 159h93
c0 -40 9 -77 36 -109c39 -46 98 -58 151 -58c47 0 94 14 126 45c21 20 35 47 35 82c0 46 -30 89 -100 107l-108 27c-89 22 -157 77 -157 176c0 67 32 124 87 164c44 32 95 51 170 51c73 0 150 -25 198 -89c28 -37 43 -88 43 -136zM558 867l-148 -113h-57l-106 115l53 49
l89 -98l127 97z" />
    <glyph glyph-name="scaron" unicode="&#x161;" horiz-adv-x="511" 
d="M458 354h-86c0 20 -5 38 -20 57c-22 28 -57 38 -92 38c-33 0 -63 -8 -86 -33c-13 -14 -20 -30 -20 -50c0 -36 30 -53 54 -59c27 -6 66 -15 118 -29c61 -16 105 -61 105 -124c0 -48 -21 -91 -58 -121c-38 -31 -92 -46 -146 -46c-73 0 -138 21 -179 73
c-20 25 -32 58 -32 92c0 6 -1 12 0 18h85c-1 -6 0 -9 0 -14c0 -27 15 -51 33 -67c28 -25 58 -31 98 -31c32 0 64 10 87 30c15 13 26 30 26 55c0 32 -20 55 -64 65l-96 23c-29 7 -57 19 -78 39s-36 49 -37 82c-1 52 22 93 59 123c34 27 83 44 139 44c62 0 133 -24 166 -81
c16 -28 24 -52 24 -84zM435 672l-130 -115h-55l-90 119l55 40l69 -92l109 94z" />
    <glyph glyph-name="Ydieresis" unicode="&#x178;" horiz-adv-x="555" 
d="M484 870l-16 -92h-92l16 92h92zM308 870l-16 -92h-92l16 92h92zM616 709l-313 -422l-50 -287h-91l52 287l-161 422h91l127 -337l244 337h101z" />
    <glyph glyph-name="Zcaron" unicode="&#x17d;" horiz-adv-x="612" 
d="M542 867l-148 -113h-57l-106 115l53 49l89 -98l127 97zM613 709l-16 -90l-495 -537h410l-15 -82h-516l16 89l493 537h-395l15 83h503z" />
    <glyph glyph-name="zcaron" unicode="&#x17e;" horiz-adv-x="492" 
d="M470 506l-14 -75l-350 -357h294l-14 -74h-400l14 75l350 357h-287l13 74h394zM437 672l-130 -115h-55l-90 119l55 40l69 -92l109 94z" />
    <glyph glyph-name="florin" unicode="&#x192;" 
d="M504 635c-7 1 -25 6 -58 6s-71 -18 -85 -89l-23 -115h141v-75h-156l-67 -339c-17 -86 -79 -138 -148 -138c-38 0 -57 4 -75 8v75c7 -1 25 -6 58 -6s71 18 85 89l62 311h-102v75h117l28 143c17 86 79 138 148 138c38 0 57 -4 75 -8v-75z" />
    <glyph glyph-name="circumflex" unicode="&#x2c6;" horiz-adv-x="351" 
d="M80 605l130 115h55l91 -119l-52 -40l-73 92l-109 -94z" />
    <glyph glyph-name="caron" unicode="&#x2c7;" horiz-adv-x="364" 
d="M393 672l-130 -115h-55l-90 119l55 40l69 -92l109 94z" />
    <glyph glyph-name="uni02C9" unicode="&#x2c9;" horiz-adv-x="292" 
d="M342 656l-12 -68h-278l12 68h278z" />
    <glyph glyph-name="breve" unicode="&#x2d8;" horiz-adv-x="348" 
d="M399 710c-24 -93 -91 -156 -190 -156c-79 0 -140 54 -140 135c0 7 0 14 1 21h66v-11c0 -48 33 -81 81 -81c60 0 95 38 111 92h71z" />
    <glyph glyph-name="dotaccent" unicode="&#x2d9;" horiz-adv-x="271" 
d="M240 691l-16 -92h-92l16 92h92z" />
    <glyph glyph-name="ring" unicode="&#x2da;" horiz-adv-x="216" 
d="M272 678c0 -65 -59 -125 -130 -125c-61 0 -93 40 -93 87c0 66 58 127 130 127c61 0 93 -41 93 -89zM151 605c32 0 65 28 65 65c0 25 -17 46 -46 46c-33 0 -65 -29 -65 -67c0 -25 17 -44 46 -44z" />
    <glyph glyph-name="ogonek" unicode="&#x2db;" horiz-adv-x="170" 
d="M44 -118c0 41 43 97 87 118c20 10 38 15 47 34l35 -34c-38 -14 -91 -55 -91 -97c0 -23 11 -33 38 -33c17 0 30 1 30 1l-9 -58c-8 -2 -19 -6 -43 -7h-10c-54 0 -84 32 -84 76z" />
    <glyph glyph-name="tilde" unicode="&#x2dc;" horiz-adv-x="356" 
d="M396 647c-30 -31 -67 -54 -111 -54c-60 0 -81 42 -124 42c-27 0 -46 -11 -66 -28l-32 42c32 30 66 54 111 54c55 0 78 -44 124 -44c26 0 50 13 68 30z" />
    <glyph glyph-name="hungarumlaut" unicode="&#x2dd;" horiz-adv-x="455" 
d="M500 657l-206 -104l-24 47l193 129zM317 657l-206 -104l-24 47l193 129z" />
    <glyph glyph-name="uni0394" unicode="&#x394;" horiz-adv-x="615" 
d="M550 0h-606l375 709h104zM447 84l-91 536l-275 -536h366z" />
    <glyph glyph-name="uni03A9" unicode="&#x3a9;" horiz-adv-x="588" 
d="M539 364c0 -54 -39 -94 -93 -94h-72c11 -15 17 -35 17 -54c0 -54 -39 -93 -93 -93h-249v248c0 54 39 94 93 94c20 0 39 -6 55 -17v71c0 54 39 94 93 94s93 -40 93 -94v-62h63c54 0 93 -40 93 -93zM522 364c0 45 -31 76 -76 76h-79v79c0 45 -32 77 -77 77s-76 -32 -76 -77
v-232h232c45 0 76 32 76 77z" />
    <glyph glyph-name="uni03BC" unicode="&#x3bc;" horiz-adv-x="586" 
d="M487 0h-74l-7 77c-26 -58 -91 -89 -150 -89c-34 0 -70 12 -88 26v-214h-85v706h85v-320c0 -76 28 -121 108 -121c34 0 62 15 84 38c32 33 42 88 42 140v263h85v-506z" />
    <glyph glyph-name="pi" unicode="&#x3c0;" horiz-adv-x="636" 
d="M560 4c-5 -2 -26 -11 -67 -11c-81 0 -109 62 -109 125v320h-167v-439h-84v439h-78v68h491v-68h-77v-310c0 -36 9 -62 46 -62c28 0 40 3 45 5v-67z" />
    <glyph glyph-name="endash" unicode="&#x2013;" horiz-adv-x="651" 
d="M581 341l-14 -79h-515l14 79h515z" />
    <glyph glyph-name="emdash" unicode="&#x2014;" horiz-adv-x="1121" 
d="M1051 341l-14 -79h-985l14 79h985z" />
    <glyph glyph-name="quoteleft" unicode="&#x2018;" horiz-adv-x="271" 
d="M245 672c-50 -20 -75 -58 -84 -110h63l-21 -117h-123l21 117c13 74 55 129 126 157z" />
    <glyph glyph-name="quoteright" unicode="&#x2019;" horiz-adv-x="261" 
d="M257 709l-21 -117c-13 -74 -48 -126 -126 -157l-18 47c56 23 74 53 84 110h-63l21 117h123z" />
    <glyph glyph-name="quotesinglbase" unicode="&#x201a;" horiz-adv-x="275" 
d="M162 117l-21 -117c-13 -74 -48 -126 -126 -157l-18 47c56 23 74 53 84 110h-63l21 117h123z" />
    <glyph glyph-name="quotedblleft" unicode="&#x201c;" horiz-adv-x="468" 
d="M444 672c-50 -20 -75 -58 -84 -110h63l-21 -117h-123l21 117c13 74 55 129 126 157zM247 672c-50 -20 -75 -58 -84 -110h63l-21 -117h-123l21 117c13 74 55 129 126 157z" />
    <glyph glyph-name="quotedblright" unicode="&#x201d;" horiz-adv-x="458" 
d="M453 709l-21 -117c-13 -74 -48 -126 -126 -157l-18 47c56 23 74 53 84 110h-63l21 117h123zM256 709l-21 -117c-13 -74 -48 -126 -126 -157l-18 47c56 23 74 53 84 110h-63l21 117h123z" />
    <glyph glyph-name="quotedblbase" unicode="&#x201e;" horiz-adv-x="488" 
d="M364 117l-21 -117c-13 -74 -48 -126 -126 -157l-18 47c56 23 74 53 84 110h-63l21 117h123zM166 117l-21 -117c-13 -74 -48 -126 -126 -157l-18 47c56 23 74 53 84 110h-63l21 117h123z" />
    <glyph glyph-name="dagger" unicode="&#x2020;" horiz-adv-x="562" 
d="M536 506l-13 -73h-186l-99 -558h-83l99 558h-187l13 73h187l36 203h83l-36 -203h186z" />
    <glyph glyph-name="daggerdbl" unicode="&#x2021;" horiz-adv-x="562" 
d="M531 506l-12 -73h-187l-50 -282h187l-13 -73h-187l-36 -203h-82l36 203h-187l13 73h187l50 282h-187l12 73h187l36 203h82l-36 -203h187z" />
    <glyph glyph-name="bullet" unicode="&#x2022;" horiz-adv-x="441" 
d="M336 292c0 -72 -56 -131 -127 -131s-128 59 -128 131s57 131 128 131s127 -59 127 -131z" />
    <glyph glyph-name="ellipsis" unicode="&#x2026;" horiz-adv-x="801" 
d="M685 115l-21 -115h-116l21 115h116zM416 115l-21 -115h-115l21 115h115zM148 115l-21 -115h-115l21 115h115z" />
    <glyph glyph-name="perthousand" unicode="&#x2030;" horiz-adv-x="1171" 
d="M1087 203c0 -54 -16 -121 -53 -161c-29 -31 -68 -55 -119 -55c-86 0 -140 62 -140 144c0 54 17 122 53 162c29 31 69 54 120 54c86 0 139 -62 139 -144zM401 579c0 -54 -16 -121 -53 -161c-29 -31 -68 -55 -119 -55c-86 0 -140 61 -140 143c0 54 17 122 53 162
c29 31 69 55 120 55c86 0 139 -62 139 -144zM761 685l-643 -709l-44 44l643 708zM736 203c0 -54 -17 -121 -54 -161c-29 -31 -68 -55 -119 -55c-86 0 -140 62 -140 144c0 54 18 122 54 162c29 31 68 54 119 54c86 0 140 -62 140 -144zM1015 201c0 47 -21 83 -72 83
c-21 0 -36 -7 -49 -18c-33 -28 -48 -90 -48 -133c0 -47 22 -83 73 -83c21 0 36 7 49 18c34 28 47 90 47 133zM329 577c0 47 -21 83 -72 83c-21 0 -36 -7 -49 -18c-33 -28 -48 -90 -48 -133c0 -47 22 -83 73 -83c21 0 36 7 49 18c34 28 47 90 47 133zM663 201
c0 47 -21 83 -72 83c-21 0 -36 -7 -49 -18c-33 -28 -47 -90 -47 -133c0 -47 22 -83 73 -83c21 0 35 7 48 18c34 28 47 90 47 133z" />
    <glyph glyph-name="guilsinglleft" unicode="&#x2039;" horiz-adv-x="313" 
d="M288 485l-152 -189l85 -195l-61 -34l-127 233l205 228z" />
    <glyph glyph-name="guilsinglright" unicode="&#x203a;" horiz-adv-x="313" 
d="M264 296l-205 -228l-50 43l152 189l-85 194l62 33z" />
    <glyph glyph-name="fraction" unicode="&#x2044;" horiz-adv-x="584" 
d="M577 685l-516 -706l-54 41l515 704z" />
    <glyph glyph-name="Euro" unicode="&#x20ac;" 
d="M609 633l-45 -69c-41 42 -98 64 -157 64c-58 0 -107 -24 -144 -63c-31 -34 -49 -73 -63 -117h285l-38 -61h-263c-5 -21 -9 -55 -11 -79h230l-38 -61h-195c0 -110 72 -181 182 -181c47 0 92 13 132 38l20 -74c-48 -29 -100 -44 -157 -44c-159 0 -261 106 -265 261h-82
l11 61h74c0 21 7 61 11 79h-71l11 61h74c18 66 51 129 100 177c52 51 121 83 202 83c74 0 144 -22 197 -75z" />
    <glyph glyph-name="uni2117" unicode="&#x2117;" horiz-adv-x="858" 
d="M790 355c0 -205 -154 -368 -361 -368s-361 162 -361 367s154 368 361 368s361 -162 361 -367zM723 355c0 175 -117 303 -294 303s-294 -129 -294 -304s117 -303 294 -303s294 129 294 304zM593 421c0 -78 -63 -125 -136 -125h-74v-135h-67v383h141c73 0 136 -45 136 -123
zM523 421c0 39 -30 61 -66 61h-75v-124h75c40 0 66 21 66 63z" />
    <glyph glyph-name="trademark" unicode="&#x2122;" horiz-adv-x="833" 
d="M823 709l-69 -391h-69l56 320l-160 -310h-49l-50 309l-56 -319h-69l69 391h105l42 -280l142 280h108zM371 709l-11 -62h-110l-58 -329h-69l58 329h-111l11 62h290z" />
    <glyph glyph-name="Omega" unicode="&#x2126;" horiz-adv-x="588" 
d="M539 364c0 -54 -39 -94 -93 -94h-72c11 -15 17 -35 17 -54c0 -54 -39 -93 -93 -93h-249v248c0 54 39 94 93 94c20 0 39 -6 55 -17v71c0 54 39 94 93 94s93 -40 93 -94v-62h63c54 0 93 -40 93 -93zM522 364c0 45 -31 76 -76 76h-79v79c0 45 -32 77 -77 77s-76 -32 -76 -77
v-232h232c45 0 76 32 76 77z" />
    <glyph glyph-name="uni2190" unicode="&#x2190;" horiz-adv-x="853" 
d="M782 269h-604l235 -232l-48 -50l-320 318l320 318l48 -50l-235 -232h604v-72z" />
    <glyph glyph-name="arrowup" unicode="&#x2191;" horiz-adv-x="857" 
d="M392 0v589l-232 -235l-50 48l318 320l318 -320l-50 -48l-232 235v-589h-72z" />
    <glyph glyph-name="uni2192" unicode="&#x2192;" horiz-adv-x="853" 
d="M792 305l-319 -318l-48 50l234 232h-604v72h604l-234 232l48 50z" />
    <glyph glyph-name="arrowdown" unicode="&#x2193;" horiz-adv-x="857" 
d="M464 708v-589l232 235l50 -48l-318 -320l-318 320l50 48l232 -235v589h72z" />
    <glyph glyph-name="uni2196" unicode="&#x2196;" horiz-adv-x="659" 
d="M627 215l-51 -51l-427 427v-331h-70v449h451v-67h-330z" />
    <glyph glyph-name="uni2197" unicode="&#x2197;" horiz-adv-x="659" 
d="M588 260h-70v331l-427 -427l-51 51l427 427h-331v67h452v-449z" />
    <glyph glyph-name="uni2198" unicode="&#x2198;" horiz-adv-x="663" 
d="M50 494l51 51l427 -427v331h70v-449h-451v67h330z" />
    <glyph glyph-name="uni2199" unicode="&#x2199;" horiz-adv-x="663" 
d="M65 449h70v-331l427 427l51 -51l-427 -427h331v-67h-452v449z" />
    <glyph glyph-name="partialdiff" unicode="&#x2202;" horiz-adv-x="547" 
d="M484 308c0 -152 -80 -321 -255 -321c-59 0 -115 25 -151 68c-31 37 -48 88 -48 143c0 152 80 321 255 321c19 0 38 -3 56 -8l-78 211h82l125 -332c9 -24 14 -57 14 -82zM397 306c0 73 -38 140 -119 140c-120 0 -161 -149 -161 -246c0 -73 38 -140 119 -140
c120 0 161 149 161 246z" />
    <glyph glyph-name="Delta" unicode="&#x2206;" horiz-adv-x="615" 
d="M550 0h-606l375 709h104zM447 84l-91 536l-275 -536h366z" />
    <glyph glyph-name="product" unicode="&#x220f;" horiz-adv-x="716" 
d="M679 709l-125 -709h-90l109 622h-337l-109 -622h-90l125 709h517z" />
    <glyph glyph-name="summation" unicode="&#x2211;" horiz-adv-x="588" 
d="M539 364c0 -54 -39 -94 -93 -94h-72c11 -15 17 -35 17 -54c0 -54 -39 -93 -93 -93h-249v248c0 54 39 94 93 94c20 0 39 -6 55 -17v71c0 54 39 94 93 94s93 -40 93 -94v-62h63c54 0 93 -40 93 -93zM522 364c0 45 -31 76 -76 76h-79v79c0 45 -32 77 -77 77s-76 -32 -76 -77
v-232h232c45 0 76 32 76 77z" />
    <glyph glyph-name="minus" unicode="&#x2212;" horiz-adv-x="641" 
d="M559 262h-515v79h515v-79z" />
    <glyph glyph-name="uni2215" unicode="&#x2215;" horiz-adv-x="584" 
d="M577 685l-516 -706l-54 41l515 704z" />
    <glyph glyph-name="uni2219" unicode="&#x2219;" horiz-adv-x="294" 
d="M208 366l-21 -119h-118l21 119h118z" />
    <glyph glyph-name="radical" unicode="&#x221a;" horiz-adv-x="642" 
d="M696 766h-110l-259 -774h-77l-179 512h91l127 -385l230 713h177v-66z" />
    <glyph glyph-name="infinity" unicode="&#x221e;" horiz-adv-x="588" 
d="M539 364c0 -54 -39 -94 -93 -94h-72c11 -15 17 -35 17 -54c0 -54 -39 -93 -93 -93h-249v248c0 54 39 94 93 94c20 0 39 -6 55 -17v71c0 54 39 94 93 94s93 -40 93 -94v-62h63c54 0 93 -40 93 -93zM522 364c0 45 -31 76 -76 76h-79v79c0 45 -32 77 -77 77s-76 -32 -76 -77
v-232h232c45 0 76 32 76 77z" />
    <glyph glyph-name="integral" unicode="&#x222b;" horiz-adv-x="327" 
d="M206 -81c0 -76 -59 -136 -147 -136h-9v72c45 1 71 29 71 69v672c0 76 59 136 147 136h9v-72c-45 -1 -71 -29 -71 -69v-672z" />
    <glyph glyph-name="approxequal" unicode="&#x2248;" horiz-adv-x="651" 
d="M570 374c-65 -64 -103 -78 -153 -78c-39 0 -75 16 -115 34c-25 11 -56 24 -85 24c-27 0 -53 -3 -99 -48l-53 55c65 64 103 78 153 78c29 0 56 -8 82 -18s52 -22 78 -31c13 -5 26 -7 39 -7c27 0 53 2 99 47zM570 184c-65 -64 -103 -78 -153 -78c-39 0 -75 15 -115 33
c-25 11 -56 25 -85 25c-27 0 -53 -3 -99 -48l-53 54c65 64 103 78 153 78c29 0 56 -7 82 -17s52 -22 78 -31c13 -5 26 -8 39 -8c27 0 53 2 99 47z" />
    <glyph glyph-name="notequal" unicode="&#x2260;" horiz-adv-x="688" 
d="M585 134h-319l-83 -118l-50 35l58 83h-88v77h142l93 133h-235v77h289l79 113l50 -35l-55 -78h119v-77h-172l-94 -133h266v-77z" />
    <glyph glyph-name="lessequal" unicode="&#x2264;" horiz-adv-x="588" 
d="M539 364c0 -54 -39 -94 -93 -94h-72c11 -15 17 -35 17 -54c0 -54 -39 -93 -93 -93h-249v248c0 54 39 94 93 94c20 0 39 -6 55 -17v71c0 54 39 94 93 94s93 -40 93 -94v-62h63c54 0 93 -40 93 -93zM522 364c0 45 -31 76 -76 76h-79v79c0 45 -32 77 -77 77s-76 -32 -76 -77
v-232h232c45 0 76 32 76 77z" />
    <glyph glyph-name="greaterequal" unicode="&#x2265;" horiz-adv-x="588" 
d="M539 364c0 -54 -39 -94 -93 -94h-72c11 -15 17 -35 17 -54c0 -54 -39 -93 -93 -93h-249v248c0 54 39 94 93 94c20 0 39 -6 55 -17v71c0 54 39 94 93 94s93 -40 93 -94v-62h63c54 0 93 -40 93 -93zM522 364c0 45 -31 76 -76 76h-79v79c0 45 -32 77 -77 77s-76 -32 -76 -77
v-232h232c45 0 76 32 76 77z" />
    <glyph glyph-name="uni2423" unicode="&#x2423;" horiz-adv-x="924" 
d="M793 -73h-776v221h47v-175h683v175h46v-221z" />
    <glyph glyph-name="lozenge" unicode="&#x25ca;" horiz-adv-x="432" 
d="M170 0l-120 356l119 353h93l120 -356l-119 -353h-93zM137 361l82 -251l76 238l-82 251z" />
    <glyph glyph-name="fi" unicode="&#xfb01;" horiz-adv-x="625" 
d="M606 722l-18 -100h-99l18 100h99zM562 506l-90 -506h-87l90 506h87zM420 706l-13 -72c-30 11 -50 18 -86 18c-40 0 -72 -25 -79 -63l-15 -83h147l-13 -72h-147l-76 -434h-85l77 434h-92l13 72h91l17 96c12 67 70 123 158 123c45 0 71 -9 103 -19z" />
    <glyph glyph-name="fl" unicode="&#xfb02;" horiz-adv-x="643" 
d="M420 706l-13 -72c-30 11 -50 18 -86 18c-40 0 -72 -25 -79 -63l-15 -83h147l-13 -72h-147l-76 -434h-85l77 434h-92l13 72h91l17 96c12 67 70 123 158 123c45 0 71 -9 103 -19zM596 722l-108 -608c-1 -4 -1 -8 -1 -11c0 -22 11 -35 38 -35c9 0 27 2 40 6l-12 -69
c-17 -7 -37 -11 -60 -11c-32 0 -55 10 -70 27s-22 36 -22 65c0 8 1 20 6 48l104 588h85z" />
    <glyph glyph-name="grave.case" horiz-adv-x="236" 
d="M221 806l-35 -45l-168 99l54 69z" />
    <glyph glyph-name="macron.case" horiz-adv-x="222" 
d="M256 842l-12 -68h-278l12 68h278z" />
    <glyph glyph-name="acute.case" horiz-adv-x="222" 
d="M225 853l-202 -99l-25 50l192 122z" />
    <glyph glyph-name="circumflex.case" horiz-adv-x="351" 
d="M62 805l148 113h57l106 -115l-53 -49l-89 98l-127 -97z" />
    <glyph glyph-name="caron.case" horiz-adv-x="222" 
d="M264 867l-148 -113h-57l-106 115l53 49l89 -98l127 97z" />
    <glyph glyph-name="breve.case" horiz-adv-x="222" 
d="M277 910c-24 -93 -91 -156 -190 -156c-79 0 -140 54 -140 135c0 7 0 14 1 21h66v-11c0 -48 33 -81 81 -81c60 0 95 38 111 92h71z" />
    <glyph glyph-name="dotaccent.case" horiz-adv-x="222" 
d="M164 881l-16 -92h-92l16 92h92z" />
    <glyph glyph-name="ring.case" horiz-adv-x="222" 
d="M222 827c0 -65 -59 -125 -130 -125c-61 0 -93 41 -93 89c0 65 60 125 130 125c61 0 93 -41 93 -89zM101 754c32 0 65 28 65 65c0 25 -17 46 -46 46c-33 0 -65 -29 -65 -67c0 -25 17 -44 46 -44z" />
    <glyph glyph-name="hungarumlaut.case" horiz-adv-x="222" 
d="M333 858l-206 -104l-24 47l193 129zM150 858l-206 -104l-24 47l193 129z" />
    <glyph glyph-name="zero.zero" 
d="M531 480c0 -51 -7 -102 -16 -152c-19 -107 -44 -224 -134 -295c-40 -31 -84 -46 -135 -46c-59 0 -105 21 -139 51c-46 41 -68 103 -68 178c0 51 8 102 17 152c19 107 43 224 133 295c39 31 85 45 135 45c65 0 115 -22 149 -58c39 -41 58 -100 58 -170zM443 518
c-7 60 -45 113 -121 113c-136 0 -160 -169 -178 -271c-7 -38 -14 -77 -17 -116zM441 426l-309 -269c8 -52 49 -92 117 -92c136 0 160 169 178 271c5 30 10 60 14 90z" />
    <glyph glyph-name="commaaccent.ss01" horiz-adv-x="222" 
d="M65 -184l14 77c7 42 31 71 83 85l10 -30c-28 -9 -41 -20 -46 -50h39l-15 -82h-85z" />
    <glyph glyph-name="ampersand.ss01" horiz-adv-x="717" 
d="M661 403l-13 -75h-111l-45 -252h110l-13 -76h-318c-106 0 -207 55 -207 173c0 93 70 168 154 199c-50 23 -85 76 -85 137c0 47 21 97 54 130c51 51 123 70 193 70c29 0 58 -6 86 -13l-14 -77c-26 6 -53 11 -80 11c-77 0 -146 -41 -146 -125c0 -66 57 -102 121 -102h117
l20 115h86l-20 -115h111zM451 328h-134c-90 0 -164 -66 -164 -148c0 -75 65 -104 131 -104h123z" />
    <glyph glyph-name="one.ss01" horiz-adv-x="556" 
d="M450 78l-14 -78h-382l14 78h149l91 517l-185 -116l16 98l192 118h83l-109 -617h145z" />
    <glyph glyph-name="caron.ss01" horiz-adv-x="222" 
d="M148 722l-15 -85c-6 -36 -21 -76 -82 -102l-9 33c34 16 41 33 45 57l1 6h-33l16 91h77z" />
    <glyph glyph-name="commaaccent" horiz-adv-x="222" 
d="M172 -58l-14 -77c-7 -42 -31 -71 -83 -85l-10 30c28 9 41 20 46 50h-39l15 82h85z" />
    <glyph glyph-name="parenleft.case" horiz-adv-x="299" 
d="M351 765c-117 -108 -191 -232 -219 -395c-8 -43 -11 -84 -11 -124c0 -113 28 -218 82 -322l-59 -27c-64 104 -95 234 -95 360c0 43 4 85 11 126c28 160 117 326 246 428z" />
    <glyph glyph-name="parenright.case" horiz-adv-x="298" 
d="M241 457c0 -41 -3 -82 -10 -122c-28 -161 -118 -335 -247 -448l-47 45c117 118 192 245 221 409c8 44 11 86 11 127c0 111 -28 212 -81 311l56 33c65 -99 97 -228 97 -355z" />
    <glyph glyph-name="bracketleft.case" horiz-adv-x="307" 
d="M363 789l-11 -62h-119l-132 -747h119l-11 -62h-188l154 871h188z" />
    <glyph glyph-name="bracketright.case" horiz-adv-x="307" 
d="M274 789l-154 -871h-188l11 62h118l132 747h-118l11 62h188z" />
    <glyph glyph-name="braceleft.case" horiz-adv-x="345" 
d="M401 792l-11 -63h-26c-73 0 -93 -36 -105 -102l-29 -161c-10 -56 -52 -101 -113 -110v-2c53 -13 82 -56 73 -112l-26 -153c-2 -13 -4 -25 -4 -38c0 -69 41 -73 98 -73l-11 -63h-27c-81 0 -130 39 -130 123c0 16 1 32 4 47l25 142c3 19 5 44 -13 63c-17 18 -44 30 -72 30
l13 72c43 -2 105 26 114 75l32 173c21 111 78 152 182 152h26z" />
    <glyph glyph-name="braceright.case" horiz-adv-x="345" 
d="M304 387l-13 -72c-60 3 -108 -36 -117 -88l-26 -147c-20 -116 -62 -165 -185 -165h-26l11 63h26c72 0 94 43 105 102l29 161c10 56 56 103 117 112v2c-61 15 -86 60 -75 125l24 138c15 84 -5 111 -94 111l11 63h27c112 0 146 -59 129 -155l-28 -157c-3 -19 -7 -47 11 -66
c17 -18 46 -27 74 -27z" />
    <glyph glyph-name="guilsinglleft.case" horiz-adv-x="313" 
d="M288 541l-152 -189l85 -195l-61 -34l-127 233l205 228z" />
    <glyph glyph-name="guilsinglright.case" horiz-adv-x="313" 
d="M264 352l-205 -228l-50 43l152 189l-85 194l62 33z" />
    <glyph glyph-name="guillemotleft.case" horiz-adv-x="546" 
d="M521 541l-151 -189l83 -195l-61 -34l-125 233l204 228zM288 541l-152 -189l84 -195l-62 -34l-125 233l205 228z" />
    <glyph glyph-name="guillemotright.case" horiz-adv-x="546" 
d="M497 352l-204 -228l-50 43l151 189l-85 194l62 33zM264 352l-205 -228l-50 43l152 189l-86 194l62 33z" />
    <glyph glyph-name="hyphen.case" horiz-adv-x="433" 
d="M363 393l-14 -79h-297l14 79h297z" />
    <glyph glyph-name="endash.case" horiz-adv-x="651" 
d="M581 393l-14 -79h-515l14 79h515z" />
    <glyph glyph-name="emdash.case" horiz-adv-x="1121" 
d="M1051 393l-14 -79h-985l14 79h985z" />
    <glyph glyph-name="uni00AD.case" horiz-adv-x="433" 
d="M363 393l-14 -79h-297l14 79h297z" />
    <glyph glyph-name="uni200B" unicode="&#x200b;" horiz-adv-x="0" 
 />
    <glyph glyph-name="uni2008" unicode="&#x2008;" horiz-adv-x="290" 
 />
    <glyph glyph-name="uni2007" unicode="&#x2007;" 
 />
    </font>
</defs>
</svg>
